<svg xmlns="http://www.w3.org/2000/svg" width="16px" height="16px" viewBox="0 0 2048 2048">
	<circle fill-opacity="0.6" r="896" cx="1024" cy="1024" fill="#33ee3d"></circle>
	<g transform="scale(0.41)"><path fill-opacity="0.7" transform="translate(616.5, 2580) rotate(180) scale(-1, 1)" fill="#231f20" d="M197 1493h886v-170h-684v-402h654v-170h-654v-581h703v-170h-905v1493z"></path><path fill-opacity="0.7" transform="translate(1849.5, 2580) rotate(180) scale(-1, 1)" fill="#231f20" d="M19 1488h276l584 -1225v1225h215v-1488h-276l-584 1225v-1225h-215v1488z"></path><path fill-opacity="0.7" transform="translate(3082.5, 2580) rotate(180) scale(-1, 1)" fill="#231f20" d="M616 170l351 1323h209l-437 -1493h-245l-437 1493h209z"></path></g>
</svg>