<?xml version="1.0" encoding="UTF-8"?>
<svg version="1.1" xmlns="http://www.w3.org/2000/svg" width="314" height="315">
<path d="M0 0 C103.62 0 207.24 0 314 0 C314 103.95 314 207.9 314 315 C210.38 315 106.76 315 0 315 C0 211.05 0 107.1 0 0 Z " fill="#FDCDA8" transform="translate(0,0)"/>
<path d="M0 0 C103.62 0 207.24 0 314 0 C314 103.95 314 207.9 314 315 C210.38 315 106.76 315 0 315 C0 211.05 0 107.1 0 0 Z M4 5 C4 105.65 4 206.3 4 310 C104.65 310 205.3 310 309 310 C309.28875 273.32875 309.5775 236.6575 309.875 198.875 C310.06618408 181.52462158 310.06618408 181.52462158 310.26123047 163.82373047 C310.30806067 153.42960982 310.30806067 153.42960982 310.33621216 143.03543091 C310.34922554 138.41508329 310.40155391 133.79700112 310.47805786 129.17727661 C310.57453377 123.27276205 310.60280077 117.37151171 310.58301187 111.46628213 C310.58714546 109.30655041 310.61465949 107.14669751 310.66901183 104.98764586 C311.00532557 91.21943082 311.00532557 91.21943082 304.17340481 79.74126065 C301.25899002 76.95659645 298.19652506 74.45085959 295 72 C290.14536109 68.03780508 285.62853854 64.02466954 281.6875 59.125 C279.74746212 56.74819967 277.672789 54.78694019 275.33203125 52.8046875 C270.29111599 48.44358157 265.66456191 43.71660413 261 38.9609375 C260.34 38.29320312 259.68 37.62546875 259 36.9375 C258.4225 36.34839844 257.845 35.75929688 257.25 35.15234375 C255.14276514 33.07466562 255.14276514 33.07466562 253.30578136 31.63857555 C249.28437815 28.3552264 246.27840825 25.12783565 243.40437317 20.79475403 C237.54629556 12.63191232 231.21640874 5.81647366 221.06728745 3.82296371 C207.15641583 1.83567056 192.88969801 2.51915803 178.88776398 2.87311554 C173.33365528 2.99384677 167.78163658 2.99839781 162.22619629 3.01330566 C146.04544169 3.1229526 129.86635061 3.41614293 113.6875 3.6875 C59.3921875 4.3371875 59.3921875 4.3371875 4 5 Z " fill="#3B3B3A" transform="translate(0,0)"/>
<path d="M0 0 C4.79800709 2.80299375 7.51112885 6.79794327 10.5625 11.375 C10.64155064 13.70699388 10.65048769 16.04332622 10.5625 18.375 C11.201875 18.478125 11.84125 18.58125 12.5 18.6875 C13.180625 18.914375 13.86125 19.14125 14.5625 19.375 C15.0575 20.86 15.0575 20.86 15.5625 22.375 C16.325625 22.4575 17.08875 22.54 17.875 22.625 C20.5625 23.375 20.5625 23.375 22.20727539 24.96875 C24.07267513 28.28083428 23.93147098 30.83609523 23.93359375 34.625 C23.95097127 36.05208579 23.9685557 37.47916907 23.98632812 38.90625 C23.99640847 41.14457751 23.99999411 43.38274445 23.99829102 45.62109375 C24.00186382 47.78954533 24.02920714 49.95676753 24.05859375 52.125 C24.06044678 53.41921875 24.0622998 54.7134375 24.06420898 56.046875 C24.64884994 59.95173806 25.73132913 60.79067436 28.5625 63.375 C28.5625 64.695 28.5625 66.015 28.5625 67.375 C24.93721432 67.57640476 22.69748292 67.23276765 19.5625 65.375 C19.5625 66.035 19.5625 66.695 19.5625 67.375 C17.5825 67.375 15.6025 67.375 13.5625 67.375 C13.8125 65 13.8125 65 14.5625 62.375 C15.8825 61.715 17.2025 61.055 18.5625 60.375 C18.5625 49.815 18.5625 39.255 18.5625 28.375 C16.9125 29.365 15.2625 30.355 13.5625 31.375 C12.9025 31.375 12.2425 31.375 11.5625 31.375 C11.62050781 32.12523437 11.67851562 32.87546875 11.73828125 33.6484375 C12.08061987 41.41463354 11.02920896 46.93122314 6.5625 53.375 C4.18287146 55.69658882 2.46563484 57.03954992 -0.625 58.1875 C-3.58253836 60.12519754 -3.65733803 63.07431476 -4.4375 66.375 C-5.4375 67.375 -5.4375 67.375 -7.50390625 67.47265625 C-8.32761719 67.46105469 -9.15132812 67.44945312 -10 67.4375 C-11.23943359 67.42396484 -11.23943359 67.42396484 -12.50390625 67.41015625 C-13.46103516 67.39275391 -13.46103516 67.39275391 -14.4375 67.375 C-14.4375 67.045 -14.4375 66.715 -14.4375 66.375 C-11.36132812 66.08203125 -11.36132812 66.08203125 -8.28515625 65.7890625 C-7.37056641 65.58410156 -7.37056641 65.58410156 -6.4375 65.375 C-6.1075 64.715 -5.7775 64.055 -5.4375 63.375 C-8.7375 63.375 -12.0375 63.375 -15.4375 63.375 C-15.4375 63.045 -15.4375 62.715 -15.4375 62.375 C-11.8075 62.375 -8.1775 62.375 -4.4375 62.375 C-4.4375 61.715 -4.4375 61.055 -4.4375 60.375 C-7.7375 60.375 -11.0375 60.375 -14.4375 60.375 C-14.4375 60.045 -14.4375 59.715 -14.4375 59.375 C-13.79941406 59.32601562 -13.16132813 59.27703125 -12.50390625 59.2265625 C-11.67761719 59.15179688 -10.85132813 59.07703125 -10 59 C-9.17628906 58.93039063 -8.35257813 58.86078125 -7.50390625 58.7890625 C-6.48103516 58.58410156 -6.48103516 58.58410156 -5.4375 58.375 C-4.9425 57.385 -4.9425 57.385 -4.4375 56.375 C-8.0675 56.375 -11.6975 56.375 -15.4375 56.375 C-15.7675 57.365 -16.0975 58.355 -16.4375 59.375 C-24.1875 59.5 -24.1875 59.5 -26.4375 58.375 C-26.7675 57.385 -27.0975 56.395 -27.4375 55.375 C-28.4275 55.375 -29.4175 55.375 -30.4375 55.375 C-30.0971875 56.7671875 -30.0971875 56.7671875 -29.75 58.1875 C-29.4375 61.375 -29.4375 61.375 -30.875 63.25 C-31.390625 63.62125 -31.90625 63.9925 -32.4375 64.375 C-32.9325 63.385 -32.9325 63.385 -33.4375 62.375 C-33.7675 64.025 -34.0975 65.675 -34.4375 67.375 C-36.0875 67.375 -37.7375 67.375 -39.4375 67.375 C-39.4375 66.715 -39.4375 66.055 -39.4375 65.375 C-40.7575 65.375 -42.0775 65.375 -43.4375 65.375 C-43.4375 66.035 -43.4375 66.695 -43.4375 67.375 C-45.4175 67.375 -47.3975 67.375 -49.4375 67.375 C-49.1875 65 -49.1875 65 -48.4375 62.375 C-46.390625 61.2109375 -46.390625 61.2109375 -44.4375 60.375 C-44.44797363 59.42657227 -44.45844727 58.47814453 -44.46923828 57.50097656 C-44.50336708 53.97491009 -44.52842168 50.44901971 -44.54736328 46.92285156 C-44.55740744 45.39808377 -44.57104531 43.87333516 -44.58837891 42.34863281 C-44.61269738 40.15424862 -44.62399889 37.96011958 -44.6328125 35.765625 C-44.64328613 34.44594727 -44.65375977 33.12626953 -44.66455078 31.76660156 C-44.45366366 28.61644689 -44.1818642 26.95119074 -42.4375 24.375 C-40.59765625 22.92578125 -40.59765625 22.92578125 -38.5 21.6875 C-37.46552734 21.06294922 -37.46552734 21.06294922 -36.41015625 20.42578125 C-34.4375 19.375 -34.4375 19.375 -31.4375 18.375 C-31.39625 17.22 -31.355 16.065 -31.3125 14.875 C-30.53671928 8.88129689 -27.35964184 4.69188752 -22.68359375 0.984375 C-15.92475431 -3.0229536 -7.12696986 -3.20646281 0 0 Z " fill="#B49278" transform="translate(166.4375,104.625)"/>
<path d="M0 0 C10.56 0 21.12 0 32 0 C32 0.66 32 1.32 32 2 C50.48 2 68.96 2 88 2 C88 2.33 88 2.66 88 3 C119.68 3.495 119.68 3.495 152 4 C152 4.33 152 4.66 152 5 C103.16 5 54.32 5 4 5 C4 105.65 4 206.3 4 310 C104.32 310 204.64 310 308 310 C308 310.66 308 311.32 308 312 C306.7934375 312.4640625 306.7934375 312.4640625 305.5625 312.9375 C303.10919595 313.76335345 303.10919595 313.76335345 302 315 C300.38923714 315.097084 298.77419204 315.12371602 297.16050625 315.12304783 C296.10619726 315.1250387 295.05188828 315.12702957 293.96563053 315.12908077 C292.20789893 315.12471178 292.20789893 315.12471178 290.41465759 315.12025452 C289.18356262 315.12111053 287.95246765 315.12196655 286.68406677 315.12284851 C283.24445717 315.12422189 279.80490369 315.12106227 276.36530082 315.11607273 C272.60763443 315.11172473 268.84996959 315.1131661 265.09230137 315.11389065 C257.78874902 315.11442363 250.4852089 315.10979346 243.1816597 315.10338932 C234.73865895 315.09620677 226.29566562 315.09539553 217.85266113 315.09460449 C195.54760547 315.08934799 173.24255256 315.07538696 150.9375 315.0625 C76.2234375 315.0315625 76.2234375 315.0315625 0 315 C0 211.05 0 107.1 0 0 Z " fill="#262627" transform="translate(0,0)"/>
<path d="M0 0 C36.58875 -0.061875 73.1775 -0.12375 110.875 -0.1875 C122.44675293 -0.21481201 134.01850586 -0.24212402 145.94091797 -0.27026367 C160.02368164 -0.28381348 160.02368164 -0.28381348 166.60720825 -0.28633118 C171.22549728 -0.28913686 175.84368384 -0.30042163 180.46194458 -0.31672668 C186.3426119 -0.33721557 192.22312897 -0.34348999 198.10382867 -0.33921683 C200.26841643 -0.34011112 202.43300914 -0.34611206 204.59756637 -0.35764539 C207.50907535 -0.37244492 210.41999144 -0.3690157 213.33151245 -0.36076355 C214.18923311 -0.36950154 215.04695377 -0.37823954 215.93066597 -0.38724232 C218.28684807 -0.36914349 218.28684807 -0.36914349 222 0 C222.99 1.485 222.99 1.485 224 3 C223.34 3.33 222.68 3.66 222 4 C221.01 3.505 221.01 3.505 220 3 C217.25718039 2.89764272 214.53949488 2.85662495 211.79621887 2.85955811 C210.93781944 2.85658698 210.07942 2.85361586 209.19500846 2.8505547 C206.30162678 2.84184224 203.40828636 2.8403573 200.51489258 2.83886719 C198.44716299 2.83424074 196.37943427 2.82921632 194.31170654 2.82382202 C188.68136956 2.8106776 183.05104452 2.80424887 177.42069459 2.79981136 C173.90459866 2.79688338 170.38850601 2.79277906 166.87241173 2.78830719 C155.87599286 2.77462569 144.87958148 2.76496274 133.88315469 2.7611053 C121.18133393 2.75662548 108.47962083 2.73908382 95.77783281 2.7101047 C85.96629706 2.68849555 76.15479162 2.67840139 66.34323233 2.67706418 C60.48055271 2.67601543 54.6179742 2.67009284 48.7553196 2.65224457 C43.23878311 2.63577764 37.72242387 2.63360176 32.20587158 2.64238358 C30.18182081 2.64315474 28.15776057 2.63880084 26.13373375 2.62892532 C23.36851097 2.61622563 20.60391781 2.62207202 17.83869934 2.63250732 C16.6398454 2.62042272 16.6398454 2.62042272 15.41677219 2.60809398 C14.66907178 2.61468382 13.92137137 2.62127367 13.15101337 2.6280632 C12.51378764 2.62746611 11.87656191 2.62686903 11.22002631 2.62625384 C8.09319188 3.06292034 8.09319188 3.06292034 2 6 C2 103.68 2 201.36 2 302 C9.91476355 302.8343029 9.91476355 302.8343029 17.75672245 303.12584114 C18.78620095 303.12844889 19.81567946 303.13105664 20.87635428 303.13374341 C22.52420098 303.13039732 22.52420098 303.13039732 24.20533752 303.12698364 C25.39740639 303.12854363 26.58947526 303.13010362 27.81766742 303.13171089 C31.0996125 303.13499152 34.3815201 303.13383507 37.66346419 303.13072467 C41.21276327 303.12845167 44.76205749 303.13195946 48.31135559 303.13470459 C55.25129757 303.13913975 62.19122871 303.13819622 69.13117111 303.13529195 C74.76832028 303.13303069 80.40546641 303.13272852 86.04261589 303.13381577 C86.84582703 303.133969 87.64903817 303.13412223 88.47658904 303.13428011 C90.10833796 303.13459984 91.74008689 303.13492405 93.37183582 303.1352527 C108.65156448 303.13810046 123.93128713 303.13483066 139.2110148 303.12945233 C152.33151612 303.12497724 165.4520086 303.12576738 178.57250977 303.13037109 C193.81269394 303.13571605 209.05287287 303.13783392 224.29305786 303.13475883 C225.91594724 303.13444028 227.53883662 303.13412591 229.161726 303.13381577 C230.35947808 303.13358435 230.35947808 303.13358435 231.58142718 303.13334826 C237.21865437 303.13248345 242.85587825 303.13394507 248.49310493 303.13629532 C255.35236423 303.1390923 262.21161207 303.13835691 269.07087005 303.13301457 C272.57275564 303.13037736 276.0746221 303.12937295 279.57650757 303.13266373 C283.36352108 303.13616886 287.15050289 303.13199855 290.93751526 303.12698364 C292.05615623 303.12921436 293.17479719 303.13144509 294.32733637 303.13374341 C295.33334515 303.13113566 296.33935392 303.12852791 297.37584782 303.12584114 C298.25099854 303.12567879 299.12614926 303.12551644 300.02781969 303.12534916 C302.00233495 303.21794191 302.00233495 303.21794191 303 302 C303.11032691 299.18086415 303.15497028 296.38570214 303.15821838 293.56565857 C303.16562535 292.22292998 303.16562535 292.22292998 303.17318195 290.85307556 C303.18863727 287.82970535 303.19693919 284.80635649 303.20532227 281.78295898 C303.21489449 279.62520151 303.22490417 277.46744594 303.23532104 275.30969238 C303.26244729 269.43185199 303.28341492 263.5540035 303.30332303 257.67613482 C303.32513515 251.54083438 303.35254711 245.4055591 303.37937927 239.27027893 C303.42937094 227.64326391 303.47428566 216.01623497 303.51740164 204.38919264 C303.56671881 191.15603096 303.62165734 177.92289452 303.67708123 164.68975723 C303.79100062 137.45986168 303.89781786 110.22994194 304 83 C303.34 83 302.68 83 302 83 C302.33 81.68 302.66 80.36 303 79 C305.63629203 81.63629203 305.2399522 83.53396207 305.25816154 87.12168694 C305.24942355 88.41993747 305.24942355 88.41993747 305.24050903 89.74441528 C305.24307709 91.11572601 305.24307709 91.11572601 305.24569702 92.51473999 C305.2490234 95.60642138 305.23793451 98.69788899 305.22705078 101.78955078 C305.22643851 104.03255138 305.22670442 106.27555236 305.2277813 108.51855278 C305.22823416 114.54346285 305.21661435 120.56829402 305.20256042 126.59318542 C305.19119878 132.23977924 305.19063573 137.88635353 305.18920898 143.53295898 C305.17870032 160.06364984 305.15077821 176.59432591 305.125 193.125 C305.08375 230.04375 305.0425 266.9625 305 305 C204.35 305 103.7 305 0 305 C0 204.35 0 103.7 0 0 Z " fill="#F2D1B6" transform="translate(4,5)"/>
<path d="M0 0 C65.67 0 131.34 0 199 0 C200 4 200 4 199 6 C198.34 6 197.68 6 197 6 C196.01 4.515 196.01 4.515 195 3 C194.34 3 193.68 3 193 3 C193 3.66 193 4.32 193 5 C183.16668372 5.03279458 173.33336193 5.05166727 163.5 5.0625 C162.72883472 5.06335602 161.95766945 5.06421204 161.16313553 5.06509399 C127.25286388 5.0980684 93.34606328 4.81767813 59.4375 4.5 C58.16071381 4.48804218 56.88392761 4.47608437 55.56845093 4.46376419 C39.71224492 4.31474878 23.85609819 4.16006448 8 4 C8 3.67 8 3.34 8 3 C5.36 2.67 2.72 2.34 0 2 C0 1.34 0 0.68 0 0 Z " fill="#303234" transform="translate(32,0)"/>
<path d="M0 0 C4.95 0 9.9 0 15 0 C14.67 1.98 14.34 3.96 14 6 C14.99 6.33 15.98 6.66 17 7 C17.33 7.33 17.66 7.66 18 8 C18 5.69 18 3.38 18 1 C22.6489565 3.00107258 24.84245171 6.1248271 28 10 C28.33 7.03 28.66 4.06 29 1 C30.32 1 31.64 1 33 1 C33 7.6 33 14.2 33 21 C26 15 26 15 25 12 C24.34 12 23.68 12 23 12 C23 15.3 23 18.6 23 22 C20.69 22 18.38 22 16 22 C15.67 22.99 15.34 23.98 15 25 C13.06183265 24.8858134 11.12444901 24.75826577 9.1875 24.625 C8.10855469 24.55539063 7.02960938 24.48578125 5.91796875 24.4140625 C3 24 3 24 0 22 C-0.34057617 19.75341797 -0.34057617 19.75341797 -0.29296875 16.9921875 C-0.28330078 16.00605469 -0.27363281 15.01992187 -0.26367188 14.00390625 C-0.23853516 12.97136719 -0.21339844 11.93882812 -0.1875 10.875 C-0.17396484 9.83472656 -0.16042969 8.79445312 -0.14648438 7.72265625 C-0.11105633 5.14821821 -0.05724812 2.57404526 0 0 Z " fill="#FCCEA8" transform="translate(205,191)"/>
<path d="M0 0 C0.66 2.97 1.32 5.94 2 9 C3.66905241 5.66189518 4.8741386 2.53842155 6 -1 C7.32 -1 8.64 -1 10 -1 C10 -0.01 10 0.98 10 2 C10.66 2 11.32 2 12 2 C12 1.01 12 0.02 12 -1 C15.96 -1 19.92 -1 24 -1 C24 0.32 24 1.64 24 3 C22.68 3 21.36 3 20 3 C20 7.62 20 12.24 20 17 C21.32 17 22.64 17 24 17 C24 18.32 24 19.64 24 21 C20.04 21 16.08 21 12 21 C12 19.35 12 17.7 12 16 C11.34 16.33 10.68 16.66 10 17 C9.34 16.01 8.68 15.02 8 14 C7.67 13.67 7.34 13.34 7 13 C6.34 15.64 5.68 18.28 5 21 C3.35 21 1.7 21 0 21 C-1.32 15.39 -2.64 9.78 -4 4 C-4.33 9.28 -4.66 14.56 -5 20 C-9.81429916 17.59285042 -11.6345082 15.13037629 -15 11 C-15.33 14.3 -15.66 17.6 -16 21 C-17.32 21 -18.64 21 -20 21 C-20 14.07 -20 7.14 -20 0 C-13 6 -13 6 -10 10 C-9.67 6.7 -9.34 3.4 -9 0 C-5.32431536 -0.91892116 -3.83619425 -0.95904856 0 0 Z " fill="#20160E" transform="translate(97,192)"/>
<path d="M0 0 C4.29 0 8.58 0 13 0 C13 2.31 13 4.62 13 7 C17.62 7 22.24 7 27 7 C27 4.69 27 2.38 27 0 C31.29 0 35.58 0 40 0 C40 0.33 40 0.66 40 1 C36.7 1 33.4 1 30 1 C30 1.66 30 2.32 30 3 C33.3 3 36.6 3 40 3 C40 3.66 40 4.32 40 5 C37.69 5 35.38 5 33 5 C33 5.66 33 6.32 33 7 C35.31 7 37.62 7 40 7 C40 7.66 40 8.32 40 9 C38.68 9 37.36 9 36 9 C36 9.66 36 10.32 36 11 C37.32 11 38.64 11 40 11 C40.18451025 21.55808656 40.18451025 21.55808656 39 26 C38.34 26 37.68 26 37 26 C36.4121875 24.63875 36.4121875 24.63875 35.8125 23.25 C33.46591849 19.0423366 30.88038312 17.01642331 26.6875 14.75 C21.58683325 13.32655811 17.56059453 13.33974847 12.75 15.375 C11.38875 16.179375 11.38875 16.179375 10 17 C9.2575 17.28875 8.515 17.5775 7.75 17.875 C5.28399019 19.46029202 4.9299526 21.27656739 4 24 C3.34 24.99 2.68 25.98 2 27 C0.3628526 23.40564006 -0.24140626 20.64023532 -0.1953125 16.69921875 C-0.18886719 15.72275391 -0.18242187 14.74628906 -0.17578125 13.74023438 C-0.15902344 12.73283203 -0.14226562 11.72542969 -0.125 10.6875 C-0.11597656 9.66076172 -0.10695312 8.63402344 -0.09765625 7.57617188 C-0.07416331 5.05068073 -0.03829451 2.52531008 0 0 Z " fill="#F4CFAF" transform="translate(136,125)"/>
<path d="M0 0 C0.99 0.33 1.98 0.66 3 1 C3 74.59 3 148.18 3 224 C2.01 224.33 1.02 224.66 0 225 C0 150.75 0 76.5 0 0 Z " fill="#423427" transform="translate(309,86)"/>
<path d="M0 0 C0.33 1.32 0.66 2.64 1 4 C5.14093698 4.20970559 5.14093698 4.20970559 9 3 C9.33 2.01 9.66 1.02 10 0 C16.47619319 1.65670058 19.88710852 4.96168445 23.3125 10.5625 C25 14 25 14 25 18 C12.13 18 -0.74 18 -14 18 C-14 11.70796982 -13.74545086 10.63253133 -10 6 C-3.67741935 0 -3.67741935 0 0 0 Z " fill="#DEBCA2" transform="translate(151,105)"/>
<path d="M0 0 C0.99 0.66 1.98 1.32 3 2 C3.29410093 4.98319664 3.39090521 7.75887677 3.36076355 10.74441528 C3.3633316 11.65862244 3.36589966 12.57282959 3.36854553 13.51473999 C3.37353525 16.60651861 3.35690215 19.69781627 3.34057617 22.78955078 C3.33965776 25.03255129 3.34005663 27.27555267 3.34167194 29.51855278 C3.34235124 35.54350351 3.32492159 41.56827671 3.30384064 47.59318542 C3.28679816 53.23978252 3.2859536 58.8863357 3.28381348 64.53295898 C3.26805047 81.06366298 3.22616729 97.59433371 3.1875 114.125 C3.125625 151.04375 3.06375 187.9625 3 226 C-93.69 226 -190.38 226 -290 226 C-290 225.67 -290 225.34 -290 225 C-289.08012278 224.99739563 -289.08012278 224.99739563 -288.14166218 224.99473864 C-251.8338256 224.89181705 -215.52600784 224.78372771 -179.21820695 224.66888306 C-174.86332623 224.65511269 -170.50844539 224.64138572 -166.15356445 224.62768555 C-164.85304049 224.62359309 -164.85304049 224.62359309 -163.52624332 224.61941796 C-149.4686978 224.57528561 -135.41114418 224.53467178 -121.35358448 224.49534739 C-106.94025905 224.45494988 -92.5269487 224.41079646 -78.11364549 224.36312145 C-69.212516 224.33379854 -60.31138771 224.30744139 -51.41023862 224.28482103 C-45.31490007 224.26905101 -39.21957999 224.24964856 -33.12426192 224.22733159 C-29.6022005 224.21454524 -26.08015338 224.20341599 -22.55807495 224.19658089 C-18.74861594 224.18914648 -14.93920974 224.17409143 -11.129776 224.15821838 C-10.00431384 224.15724028 -8.87885167 224.15626217 -7.71928459 224.15525442 C-6.70710883 224.14977998 -5.69493306 224.14430554 -4.6520853 224.1386652 C-3.77151386 224.13600716 -2.89094241 224.13334911 -1.98368698 224.13061053 C0.00090706 224.2188003 0.00090706 224.2188003 1 223 C1.11032691 220.18086415 1.15497028 217.38570214 1.15821838 214.56565857 C1.16562535 213.22292998 1.16562535 213.22292998 1.17318195 211.85307556 C1.18863727 208.82970535 1.19693919 205.80635649 1.20532227 202.78295898 C1.21489449 200.62520151 1.22490417 198.46744594 1.23532104 196.30969238 C1.26244729 190.43185199 1.28341492 184.5540035 1.30332303 178.67613482 C1.32513515 172.54083438 1.35254711 166.4055591 1.37937927 160.27027893 C1.42937094 148.64326391 1.47428566 137.01623497 1.51740164 125.38919264 C1.56671881 112.15603096 1.62165734 98.92289452 1.67708123 85.68975723 C1.79100062 58.45986168 1.89781786 31.22994194 2 4 C1.34 4 0.68 4 0 4 C0 2.68 0 1.36 0 0 Z " fill="#F3D0B4" transform="translate(306,84)"/>
<path d="M0 0 C0.33 0 0.66 0 1 0 C1 100.32 1 200.64 1 304 C0.34 304.33 -0.32 304.66 -1 305 C-1.66 304.67 -2.32 304.34 -3 304 C-3.04241723 301.66705225 -3.04092937 299.33297433 -3 297 C-2.67 296.67 -2.34 296.34 -2 296 C-1.89299636 294.4208556 -1.85574743 292.83694425 -1.84571743 291.25421047 C-1.83675959 290.22113433 -1.82780175 289.18805819 -1.81857246 288.12367672 C-1.81370341 286.97486886 -1.80883435 285.82606101 -1.80381775 284.6424408 C-1.79479622 283.43285487 -1.78577469 282.22326895 -1.77647978 280.97702891 C-1.75233296 277.60442564 -1.73267156 274.23184861 -1.7148484 270.85920942 C-1.69458492 267.22794871 -1.66861659 263.59672843 -1.64332581 259.96549988 C-1.60026073 253.66910988 -1.56084517 247.37270542 -1.5238781 241.07627678 C-1.47042407 231.97259397 -1.41151307 222.86895297 -1.35125155 213.76531298 C-1.25364049 198.99680436 -1.1604694 184.22827118 -1.07006836 169.4597168 C-0.98222022 155.1097665 -0.89229475 140.7598317 -0.79956055 126.40991211 C-0.79384928 125.52602414 -0.78813801 124.64213617 -0.78225368 123.73146372 C-0.7535903 119.29744904 -0.72488592 114.86343463 -0.69616115 110.42942035 C-0.45775042 73.61965268 -0.22653596 36.80984257 0 0 Z " fill="#322012" transform="translate(3,7)"/>
<path d="M0 0 C3.72599292 2.81922473 5.35235855 6.40736075 6.328125 10.9609375 C5.47915565 14.54547474 3.59792506 16.08297154 0.765625 18.3359375 C-0.554375 18.3359375 -1.874375 18.3359375 -3.234375 18.3359375 C-3.894375 17.0159375 -4.554375 15.6959375 -5.234375 14.3359375 C-8.2877885 14.04234005 -11.19180922 13.8908117 -14.234375 14.3359375 C-16.84348463 16.6543231 -16.84348463 16.6543231 -18.234375 19.3359375 C-20.874375 17.3559375 -23.514375 15.3759375 -26.234375 13.3359375 C-26.00661763 7.75588182 -24.68346603 4.84759532 -20.8359375 0.78125 C-14.80593797 -4.6604569 -6.66296921 -3.69873488 0 0 Z " fill="#F6CAA7" transform="translate(166.234375,142.6640625)"/>
<path d="M0 0 C7.87510557 0.01145633 15.75021234 0.01674457 23.62532425 0.021703 C39.7404774 0.03197826 55.85561376 0.04940487 71.97075462 0.07202661 C72.30075462 1.06202661 72.63075462 2.05202661 72.97075462 3.07202661 C63.13743834 3.10482119 53.30411655 3.12369388 43.47075462 3.13452661 C42.69958935 3.13538263 41.92842407 3.13623865 41.13389015 3.1371206 C7.22361851 3.17009501 -26.68318209 2.88970474 -60.59174538 2.57202661 C-61.86853157 2.56006879 -63.14531776 2.54811098 -64.46079445 2.5357908 C-80.31700046 2.38677539 -96.17314719 2.23209109 -112.02924538 2.07202661 C-112.02924538 1.74202661 -112.02924538 1.41202661 -112.02924538 1.07202661 C-74.68307706 0.03797312 -37.35649393 -0.05536665 0 0 Z " fill="#3A3028" transform="translate(152.0292453765869,1.9279733896255493)"/>
<path d="M0 0 C-1.17727455 2.55076153 -2.44130312 4.59705716 -4.125 6.875 C-6.18214631 10.30357718 -6.37305442 12.0829286 -6 16 C-2.37 16.33 1.26 16.66 5 17 C5 17.33 5 17.66 5 18 C0.71 18 -3.58 18 -8 18 C-8 19.32 -8 20.64 -8 22 C-6.35 22 -4.7 22 -3 22 C-3 22.33 -3 22.66 -3 23 C-4.65 23 -6.3 23 -8 23 C-8 23.99 -8 24.98 -8 26 C-5.69 26 -3.38 26 -1 26 C-1 26.33 -1 26.66 -1 27 C-3.31 27 -5.62 27 -8 27 C-8 27.99 -8 28.98 -8 30 C-4.7 30 -1.4 30 2 30 C2 30.33 2 30.66 2 31 C-1.3 31 -4.6 31 -8 31 C-7.87625 32.44375 -7.7525 33.8875 -7.625 35.375 C-7.55539063 36.18710938 -7.48578125 36.99921875 -7.4140625 37.8359375 C-7.17107412 40.20334191 -7.17107412 40.20334191 -5 42 C-4.649375 41.278125 -4.29875 40.55625 -3.9375 39.8125 C-0.9273347 35.44290521 2.97505625 32.67498125 8 31 C14.34795981 30.4620373 18.72574516 31.32264108 24 35 C26.05760258 36.90813993 27.39762536 38.64651225 29 41 C29 41.99 29 42.98 29 44 C29.66 44 30.32 44 31 44 C31 42.35 31 40.7 31 39 C31.66 39.99 32.32 40.98 33 42 C31.98084106 47.09579469 29.5968605 50.32139267 26 54 C24.948125 54.474375 23.89625 54.94875 22.8125 55.4375 C19.62086629 56.80784982 19.62086629 56.80784982 18.6875 60.625 C18.460625 61.73875 18.23375 62.8525 18 64 C17 65 17 65 14.93359375 65.09765625 C13.69802734 65.08025391 13.69802734 65.08025391 12.4375 65.0625 C11.19806641 65.04896484 11.19806641 65.04896484 9.93359375 65.03515625 C8.97646484 65.01775391 8.97646484 65.01775391 8 65 C8 64.67 8 64.34 8 64 C11.07617188 63.70703125 11.07617188 63.70703125 14.15234375 63.4140625 C15.06693359 63.20910156 15.06693359 63.20910156 16 63 C16.33 62.34 16.66 61.68 17 61 C13.7 61 10.4 61 7 61 C7 60.67 7 60.34 7 60 C10.63 60 14.26 60 18 60 C18 59.34 18 58.68 18 58 C14.7 58 11.4 58 8 58 C8 57.67 8 57.34 8 57 C8.63808594 56.95101562 9.27617187 56.90203125 9.93359375 56.8515625 C10.75988281 56.77679688 11.58617187 56.70203125 12.4375 56.625 C13.67306641 56.52058594 13.67306641 56.52058594 14.93359375 56.4140625 C15.95646484 56.20910156 15.95646484 56.20910156 17 56 C17.33 55.34 17.66 54.68 18 54 C14.37 54 10.74 54 7 54 C6.67 54.99 6.34 55.98 6 57 C-0.23139414 55.78411822 -3.49220382 52.01759506 -7 47 C-8.7708064 43.27547576 -9.23926443 40.3712241 -9.1953125 36.26171875 C-9.18886719 35.19501953 -9.18242187 34.12832031 -9.17578125 33.02929688 C-9.15902344 31.92650391 -9.14226562 30.82371094 -9.125 29.6875 C-9.11597656 28.56537109 -9.10695312 27.44324219 -9.09765625 26.28710938 C-9.07414486 23.52452091 -9.04128155 20.76237068 -9 18 C-10.65 19.32 -12.3 20.64 -14 22 C-13.75 20.125 -13.75 20.125 -13 18 C-12.34 17.7525 -11.68 17.505 -11 17.25 C-10.34 16.8375 -9.68 16.425 -9 16 C-8.80168208 14.08292682 -8.60997095 12.16459335 -8.47265625 10.2421875 C-7.65664356 6.37118517 -4.35697472 0 0 0 Z M-0.8125 38.75 C-3.21727982 42.32281573 -3.74463186 44.74386442 -4 49 C-1.36 50.98 1.28 52.96 4 55 C4.7115625 53.7625 4.7115625 53.7625 5.4375 52.5 C8.34926408 49.65925455 8.88515746 49.65706817 12.75 49.6875 C14.16823316 49.76756155 15.58603027 49.86404137 17 50 C17.66 51.32 18.32 52.64 19 54 C21.98976005 53.66780444 23.84585108 53.10141377 26.375 51.4375 C28.3588088 48.4617868 28.3194169 46.44471293 27.671875 42.9609375 C26.18706477 38.62736345 22.8869529 36.57159187 19.1875 34.1875 C11.32448182 31.25814029 5.21319643 32.85820794 -0.8125 38.75 Z " fill="#371E10" transform="translate(144,107)"/>
<path d="M0 0 C2.8100346 1.79363911 4.50940468 3.01880935 6 6 C6.4973766 10.973766 6.54511419 13.06308498 4 17.4375 C0.79314279 20.17669053 -0.88823275 21.01265832 -5.00390625 21.23828125 C-8.44405138 20.82761813 -10.45378542 19.2430938 -13 17 C-15.34965355 13.79592697 -15.54561533 10.89725235 -15 7 C-11.17510224 0.87163222 -7.16189993 -1.02900861 0 0 Z " fill="#251911" transform="translate(157,192)"/>
<path d="M0 0 C99.99 0 199.98 0 303 0 C303 0.66 303 1.32 303 2 C301.68 2.33 300.36 2.66 299 3 C299 2.34 299 1.68 299 1 C200.66 1.33 102.32 1.66 1 2 C0.67 1.34 0.34 0.68 0 0 Z " fill="#342417" transform="translate(5,310)"/>
<path d="M0 0 C4.79800709 2.80299375 7.51112885 6.79794327 10.5625 11.375 C10.82010279 14.06952521 10.65150053 16.66048375 10.5625 19.375 C4.1275 19.87 4.1275 19.87 -2.4375 20.375 C-2.7675 22.685 -3.0975 24.995 -3.4375 27.375 C-8.0575 27.375 -12.6775 27.375 -17.4375 27.375 C-17.4375 24.735 -17.4375 22.095 -17.4375 19.375 C-21.0675 19.375 -24.6975 19.375 -28.4375 19.375 C-28.4375 19.045 -28.4375 18.715 -28.4375 18.375 C-15.8975 18.375 -3.3575 18.375 9.5625 18.375 C5.57140361 8.39725902 4.00382381 4.54674773 -5.4375 0.375 C-5.7675 1.695 -6.0975 3.015 -6.4375 4.375 C-9.25 5.0625 -9.25 5.0625 -12.4375 5.375 C-14.3125 4.0625 -14.3125 4.0625 -15.4375 2.375 C-15.4375 1.715 -15.4375 1.055 -15.4375 0.375 C-18.9025 1.86 -18.9025 1.86 -22.4375 3.375 C-22.4375 2.715 -22.4375 2.055 -22.4375 1.375 C-15.85070949 -3.01619367 -7.19617076 -3.26353854 0 0 Z " fill="#301508" transform="translate(166.4375,104.625)"/>
<path d="M0 0 C1.32 0 2.64 0 4 0 C4 0.99 4 1.98 4 3 C4.66 3 5.32 3 6 3 C6 2.01 6 1.02 6 0 C9.96 0 13.92 0 18 0 C18 1.32 18 2.64 18 4 C16.68 4 15.36 4 14 4 C14 8.62 14 13.24 14 18 C15.32 18 16.64 18 18 18 C18 19.32 18 20.64 18 22 C14.04 22 10.08 22 6 22 C6 20.35 6 18.7 6 17 C5.34 17.33 4.68 17.66 4 18 C1.84610367 15.07569238 0.9734682 13.57150934 1.14453125 9.88671875 C1.36496094 8.83097656 1.58539063 7.77523437 1.8125 6.6875 C2.13154297 5.08455078 2.13154297 5.08455078 2.45703125 3.44921875 C2.63621094 2.64097656 2.81539063 1.83273438 3 1 C2.01 0.67 1.02 0.34 0 0 Z " fill="#CFA98B" transform="translate(103,191)"/>
<path d="M0 0 C1.485 0.99 1.485 0.99 3 2 C3.29410524 4.98324032 3.39089887 7.75883654 3.36076355 10.74441528 C3.36332682 11.66083986 3.3658901 12.57726444 3.36853105 13.52145946 C3.37349647 16.6109988 3.35693063 19.70005601 3.34057617 22.78955078 C3.3397305 24.99671416 3.34020388 27.20387838 3.34190369 29.41104126 C3.34276738 35.41906898 3.32508108 41.42691843 3.30418181 47.43490458 C3.2854773 53.70764172 3.2836695 59.98038258 3.28010559 66.25314331 C3.27182902 76.78679445 3.25306745 87.32038689 3.22631836 97.85400391 C3.19879215 108.70491202 3.17755155 119.55580232 3.16479492 130.40673828 C3.16400675 131.07529984 3.16321858 131.74386141 3.16240653 132.43268241 C3.15849149 135.78657299 3.15470035 139.1404637 3.15097082 142.49435449 C3.11958022 170.32961541 3.06678412 198.1648031 3 226 C0.39703901 222.09555852 0.74531772 218.85052 0.79745483 214.32514954 C0.79982954 213.42828829 0.80220424 212.53142705 0.8046509 211.6073882 C0.81510104 208.59010309 0.83998268 205.57310732 0.86474609 202.5559082 C0.87516795 200.39786167 0.88470397 198.2398107 0.89341736 196.08175659 C0.91963965 190.21221168 0.95830493 184.34280594 0.99914122 178.47334695 C1.03969427 172.3434489 1.06889141 166.21349725 1.09927368 160.08354187 C1.15856667 148.47069101 1.22812824 136.85792507 1.30134451 125.24515456 C1.38418808 112.0265146 1.45563684 98.80782082 1.52611041 85.58911002 C1.67136043 58.39266085 1.83097885 31.19631108 2 4 C1.34 4 0.68 4 0 4 C0 2.68 0 1.36 0 0 Z " fill="#DEC4AD" transform="translate(306,84)"/>
<path d="M0 0 C1.93681161 -0.08107583 3.8745934 -0.13922475 5.8125 -0.1875 C6.89144531 -0.22230469 7.97039062 -0.25710937 9.08203125 -0.29296875 C12 0 12 0 13.89453125 1.29296875 C15 3 15 3 14.875 6.5 C14.04708506 9.81165975 13.67166939 11.02528784 11 13 C11.495 13.763125 11.99 14.52625 12.5 15.3125 C14 18 14 18 14 21 C12.68 21 11.36 21 10 21 C9.73445312 20.43410156 9.46890625 19.86820313 9.1953125 19.28515625 C8.66550781 18.18494141 8.66550781 18.18494141 8.125 17.0625 C7.77695313 16.33160156 7.42890625 15.60070312 7.0703125 14.84765625 C6.1315023 12.83667541 6.1315023 12.83667541 4 12 C4 14.97 4 17.94 4 21 C2.68 21 1.36 21 0 21 C0 16.71 0 12.42 0 8 C0.66 7.67 1.32 7.34 2 7 C1.67 6.401875 1.34 5.80375 1 5.1875 C0 3 0 3 0 0 Z " fill="#201B19" transform="translate(125,192)"/>
<path d="M0 0 C0.66 0 1.32 0 2 0 C2 33.66 2 67.32 2 102 C0.515 102.495 0.515 102.495 -1 103 C-1.13095572 68.65099649 -0.8920854 34.33817035 0 0 Z " fill="#392E24" transform="translate(310,208)"/>
<path d="M0 0 C3.13498176 1.08102819 3.9868559 1.97840612 5.75 4.875 C7 8 7 8 7 12 C-5.87 12 -18.74 12 -32 12 C-32 10.68 -32 9.36 -32 8 C-31.34 8 -30.68 8 -30 8 C-29.34 6.02 -28.68 4.04 -28 2 C-27.01 2 -26.02 2 -25 2 C-24.34 3.98 -23.68 5.96 -23 8 C-20.03 8 -17.06 8 -14 8 C-13.67 6.02 -13.34 4.04 -13 2 C-12.34 2 -11.68 2 -11 2 C-10.34 3.98 -9.68 5.96 -9 8 C-6.08347826 8.16681109 -6.08347826 8.16681109 -3 8 C-0.4345406 5.4345406 -0.45953913 3.52313332 0 0 Z " fill="#EAC6A9" transform="translate(169,111)"/>
<path d="M0 0 C4.95 0 9.9 0 15 0 C15 1.32 15 2.64 15 4 C11.37 4 7.74 4 4 4 C4 5.65 4 7.3 4 9 C7.3 9 10.6 9 14 9 C14 10.32 14 11.64 14 13 C10.7 13 7.4 13 4 13 C4 14.65 4 16.3 4 18 C7.63 18 11.26 18 15 18 C15 19.32 15 20.64 15 22 C10.05 22 5.1 22 0 22 C0 14.74 0 7.48 0 0 Z " fill="#453123" transform="translate(205,191)"/>
<path d="M0 0 C2.31 1.98 4.62 3.96 7 6 C11.37249616 3.9883595 11.37249616 3.9883595 16 0 C16 6.93 16 13.86 16 21 C14.68 21 13.36 21 12 21 C11.67 17.7 11.34 14.4 11 11 C10.01 11.66 9.02 12.32 8 13 C7.01 12.01 6.02 11.02 5 10 C4.67 13.63 4.34 17.26 4 21 C2.68 21 1.36 21 0 21 C0 14.07 0 7.14 0 0 Z " fill="#322117" transform="translate(185,192)"/>
<path d="M0 0 C4.62 0 9.24 0 14 0 C14 0.99 14 1.98 14 3 C10.7 3 7.4 3 4 3 C4 4.65 4 6.3 4 8 C6.97 8 9.94 8 13 8 C13 9.32 13 10.64 13 12 C10.03 12 7.06 12 4 12 C4 13.65 4 15.3 4 17 C7.3 17 10.6 17 14 17 C14 18.32 14 19.64 14 21 C9.38 21 4.76 21 0 21 C0 14.07 0 7.14 0 0 Z " fill="#2B1E14" transform="translate(59,192)"/>
<path d="M0 0 C3 3 6 6 9 9 C9.33 6.03 9.66 3.06 10 0 C11.32 0 12.64 0 14 0 C14 6.6 14 13.2 14 20 C7 14 7 14 6 11 C5.34 11 4.68 11 4 11 C4 14.3 4 17.6 4 21 C2.68 21 1.36 21 0 21 C0 14.07 0 7.14 0 0 Z " fill="#1F1209" transform="translate(224,192)"/>
<path d="M0 0 C0.33 0 0.66 0 1 0 C1 10.56 1 21.12 1 32 C1.66 32 2.32 32 3 32 C3 21.77 3 11.54 3 1 C3.33 1 3.66 1 4 1 C4.01401855 2.37720215 4.01401855 2.37720215 4.02832031 3.78222656 C4.07239931 7.19705278 4.13403732 10.61063108 4.20751953 14.02490234 C4.23570088 15.50102196 4.25692966 16.97729169 4.27099609 18.45361328 C4.29246698 20.57923057 4.33913043 22.70304879 4.390625 24.828125 C4.41157227 26.1059082 4.43251953 27.38369141 4.45410156 28.70019531 C5.09217727 32.55718606 6.20171106 33.43014281 9 36 C9 37.32 9 38.64 9 40 C7.35 40 5.7 40 4 40 C4 39.34 4 38.68 4 38 C2.68 38 1.36 38 0 38 C0 38.66 0 39.32 0 40 C-1.98 40 -3.96 40 -6 40 C-5.75 37.625 -5.75 37.625 -5 35 C-2.953125 33.8359375 -2.953125 33.8359375 -1 33 C-1.00523682 32.03586182 -1.01047363 31.07172363 -1.01586914 30.07836914 C-1.03392118 26.51327436 -1.04543274 22.94818364 -1.05493164 19.38305664 C-1.0599714 17.83780234 -1.0668032 16.29255284 -1.07543945 14.74731445 C-1.08752076 12.53074971 -1.09323173 10.31424782 -1.09765625 8.09765625 C-1.10281754 7.4028566 -1.10797882 6.70805695 -1.11329651 5.99220276 C-1.11349277 4.3277067 -1.06189129 2.66334501 -1 1 C-0.67 0.67 -0.34 0.34 0 0 Z " fill="#382114" transform="translate(123,132)"/>
<path d="M0 0 C0.33 0 0.66 0 1 0 C1.02334753 20.79232385 1.04098831 41.58464554 1.05181217 62.37697983 C1.05697118 72.03094674 1.06400638 81.6849055 1.07543945 91.33886719 C1.08539833 99.75203591 1.09185631 108.16519874 1.09408849 116.57837319 C1.09539355 121.03416692 1.09846649 125.48994379 1.10573006 129.94573212 C1.11250923 134.13827381 1.11461307 138.33079166 1.11310768 142.52333832 C1.11338315 144.06326426 1.11537704 145.60319098 1.11920547 147.14311218 C1.12417232 149.24369193 1.1229872 151.34418139 1.12025452 153.44476318 C1.12163721 155.20907495 1.12163721 155.20907495 1.12304783 157.00902939 C1.01921114 159.5330275 0.74302272 161.60067922 0 164 C0.66 164 1.32 164 2 164 C1.505 165.98 1.505 165.98 1 168 C0.01 167.67 -0.98 167.34 -2 167 C-2.04241723 164.66705225 -2.04092937 162.33297433 -2 160 C-1.67 159.67 -1.34 159.34 -1 159 C-0.8909311 156.95005212 -0.85308745 154.89630684 -0.84178162 152.8434906 C-0.83684364 152.19335135 -0.83190566 151.5432121 -0.82681805 150.87337166 C-0.81137193 148.67917431 -0.80306333 146.48500637 -0.79467773 144.29077148 C-0.78510479 142.72413877 -0.77509506 141.15750868 -0.76467896 139.59088135 C-0.73756056 135.32456437 -0.71658868 131.05823625 -0.69667697 126.79188037 C-0.67486003 122.33820724 -0.64745042 117.88456871 -0.62062073 113.43092346 C-0.57063561 104.99135066 -0.52571845 96.55175871 -0.48259836 88.11214834 C-0.43327561 78.50648099 -0.37833914 68.90084834 -0.32291877 59.29521453 C-0.20900943 39.53017534 -0.10218999 19.76510303 0 0 Z " fill="#281F1B" transform="translate(2,144)"/>
<path d="M0 0 C7 6 7 6 10 10 C10.33 6.7 10.66 3.4 11 0 C11.99 0 12.98 0 14 0 C14 6.27 14 12.54 14 19 C9.57225348 17.52408449 7.93580038 14.58820047 5 11 C4.67 14.3 4.34 17.6 4 21 C2.68 21 1.36 21 0 21 C0 14.07 0 7.14 0 0 Z " fill="#201209" transform="translate(77,192)"/>
<path d="M0 0 C3 3 6 6 9 9 C9.33 6.03 9.66 3.06 10 0 C11.32 0 12.64 0 14 0 C14 6.6 14 13.2 14 20 C9.85865976 16.54888314 7.07725664 14.14246086 4 10 C3.67 13.63 3.34 17.26 3 21 C2.01 21 1.02 21 0 21 C0 14.07 0 7.14 0 0 Z " fill="#190E07" transform="translate(167,192)"/>
<path d="M0 0 C3.93928999 2.18331457 6.28309374 4.65993456 8.8125 8.375 C8.8125 9.365 8.8125 10.355 8.8125 11.375 C9.4725 11.375 10.1325 11.375 10.8125 11.375 C10.8125 9.725 10.8125 8.075 10.8125 6.375 C11.8025 7.86 11.8025 7.86 12.8125 9.375 C11.79334106 14.47079469 9.4093605 17.69639267 5.8125 21.375 C4.760625 21.849375 3.70875 22.32375 2.625 22.8125 C-0.56663371 24.18284982 -0.56663371 24.18284982 -1.5 28 C-1.726875 29.11375 -1.95375 30.2275 -2.1875 31.375 C-3.1875 32.375 -3.1875 32.375 -5.25390625 32.47265625 C-6.07761719 32.46105469 -6.90132812 32.44945312 -7.75 32.4375 C-8.57628906 32.42847656 -9.40257812 32.41945312 -10.25390625 32.41015625 C-10.89199219 32.39855469 -11.53007812 32.38695312 -12.1875 32.375 C-12.1875 32.045 -12.1875 31.715 -12.1875 31.375 C-9.11132812 31.08203125 -9.11132812 31.08203125 -6.03515625 30.7890625 C-5.12056641 30.58410156 -5.12056641 30.58410156 -4.1875 30.375 C-3.8575 29.715 -3.5275 29.055 -3.1875 28.375 C-6.4875 28.375 -9.7875 28.375 -13.1875 28.375 C-13.1875 28.045 -13.1875 27.715 -13.1875 27.375 C-9.5575 27.375 -5.9275 27.375 -2.1875 27.375 C-2.1875 26.715 -2.1875 26.055 -2.1875 25.375 C-5.4875 25.375 -8.7875 25.375 -12.1875 25.375 C-12.1875 25.045 -12.1875 24.715 -12.1875 24.375 C-11.23037109 24.30152344 -11.23037109 24.30152344 -10.25390625 24.2265625 C-9.42761719 24.15179688 -8.60132813 24.07703125 -7.75 24 C-6.92628906 23.93039063 -6.10257813 23.86078125 -5.25390625 23.7890625 C-4.57199219 23.65242188 -3.89007813 23.51578125 -3.1875 23.375 C-2.8575 22.715 -2.5275 22.055 -2.1875 21.375 C-6.1475 21.375 -10.1075 21.375 -14.1875 21.375 C-14.1875 21.045 -14.1875 20.715 -14.1875 20.375 C-10.5575 20.375 -6.9275 20.375 -3.1875 20.375 C-3.5175 19.385 -3.8475 18.395 -4.1875 17.375 C-3.5275 17.375 -2.8675 17.375 -2.1875 17.375 C-1.8575 18.695 -1.5275 20.015 -1.1875 21.375 C3.53569911 19.82701339 3.53569911 19.82701339 6.8125 16.375 C6.53727512 9.99386322 6.53727512 9.99386322 3.8125 4.375 C1.40297977 3.12785597 1.40297977 3.12785597 -1.1875 2.375 C-2.1775 2.045 -3.1675 1.715 -4.1875 1.375 C-10.27318662 1.14205155 -10.27318662 1.14205155 -16.1875 2.375 C-16.5175 1.715 -16.8475 1.055 -17.1875 0.375 C-11.37621469 -2.53064266 -5.84249014 -2.64565591 0 0 Z " fill="#4F3423" transform="translate(164.1875,139.625)"/>
<path d="M0 0 C3.96 0 7.92 0 12 0 C12 0.33 12 0.66 12 1 C8.7 1 5.4 1 2 1 C2 1.66 2 2.32 2 3 C5.3 3 8.6 3 12 3 C12 3.66 12 4.32 12 5 C9.69 5 7.38 5 5 5 C5 5.66 5 6.32 5 7 C7.31 7 9.62 7 12 7 C12 7.66 12 8.32 12 9 C10.68 9 9.36 9 8 9 C8 9.66 8 10.32 8 11 C9.32 11 10.64 11 12 11 C12.18451025 21.55808656 12.18451025 21.55808656 11 26 C10.34 26 9.68 26 9 26 C8.38125 24.6696875 8.38125 24.6696875 7.75 23.3125 C6.14648496 19.96665932 6.14648496 19.96665932 3.75 17.4375 C2 15 2 15 2.125 12.25 C3 10 3 10 5 9 C2.525 8.01 2.525 8.01 0 7 C0 4.69 0 2.38 0 0 Z " fill="#F2D0B5" transform="translate(164,125)"/>
<path d="M0 0 C1.875 0.25 1.875 0.25 4 1 C6.43269224 4.50010883 6.23057369 7.79230448 6.1953125 11.953125 C6.1924826 12.61334656 6.18965271 13.27356812 6.18673706 13.95379639 C6.17558415 16.05271897 6.15048946 18.15120742 6.125 20.25 C6.11496384 21.67707715 6.1058391 23.10416102 6.09765625 24.53125 C6.07566111 28.02097328 6.04116536 31.51044423 6 35 C7.21236328 35.39832031 7.21236328 35.39832031 8.44921875 35.8046875 C9.29097656 36.19914062 10.13273438 36.59359375 11 37 C11.8125 40.125 11.8125 40.125 12 43 C8.37471432 43.20140476 6.13498292 42.85776765 3 41 C3 41.66 3 42.32 3 43 C1.02 43 -0.96 43 -3 43 C-2.65930765 39.84859577 -2.41923159 38.39218439 -0.0625 36.1875 C2 35 2 35 4 35 C3.93123657 30.62117544 3.84332917 26.24328479 3.73754883 21.86523438 C3.70426537 20.37543428 3.67624403 18.88550705 3.65356445 17.39550781 C3.62007929 15.25530748 3.56777211 13.11627581 3.51171875 10.9765625 C3.48553467 9.68830566 3.45935059 8.40004883 3.43237305 7.07275391 C3.28968994 6.05874512 3.14700684 5.04473633 3 4 C2.01 3.34 1.02 2.68 0 2 C0 1.34 0 0.68 0 0 Z " fill="#887161" transform="translate(183,129)"/>
<path d="M0 0 C2.578125 -0.061875 5.15625 -0.12375 7.8125 -0.1875 C9.02450073 -0.22846802 9.02450073 -0.22846802 10.26098633 -0.27026367 C15.46811849 -0.33101681 15.46811849 -0.33101681 18.02734375 1.26171875 C19.25572558 3.45701962 19.17879512 4.53908887 18.75 7 C18.64171875 7.680625 18.5334375 8.36125 18.421875 9.0625 C18 11 18 11 17 14 C16.67 15.32 16.34 16.64 16 18 C12.7 17.67 9.4 17.34 6 17 C6 16.01 6 15.02 6 14 C8.64 13.67 11.28 13.34 14 13 C14 11.68 14 10.36 14 9 C11.03 9 8.06 9 5 9 C5 7.35 5 5.7 5 4 C8.3 4 11.6 4 15 4 C15 3.01 15 2.02 15 1 C10.38 1 5.76 1 1 1 C1 7.93 1 14.86 1 22 C0.67 22 0.34 22 0 22 C0 14.74 0 7.48 0 0 Z " fill="#D3B093" transform="translate(58,191)"/>
<path d="M0 0 C3.61858694 -0.08387453 5.90306834 0.00911536 9 2 C9.33 2.66 9.66 3.32 10 4 C11.97522846 5.04808041 13.97481509 6.0520411 16 7 C16 7.66 16 8.32 16 9 C10 12 10 12 7.75 12.875 C5.28399019 14.46029202 4.9299526 16.27656739 4 19 C3.34 19.99 2.68 20.98 2 22 C-0.35582065 17.37183267 -0.23521469 13.24465865 -0.125 8.1875 C-0.11597656 7.39923828 -0.10695312 6.61097656 -0.09765625 5.79882812 C-0.07422504 3.86575334 -0.03835838 1.9328362 0 0 Z " fill="#CAAA90" transform="translate(136,130)"/>
<path d="M0 0 C2.0625 1.625 2.0625 1.625 3 4 C2.92857348 7.49989972 2.66021066 9.29263143 0.25 11.875 C-2.49727007 13.24863504 -3.96787906 13.53062116 -7 13 C-9.3125 11.375 -9.3125 11.375 -11 9 C-11.44912849 5.85610056 -11.504106 3.94519875 -10 1.125 C-6.7780545 -0.68734434 -3.5961431 -0.66539862 0 0 Z " fill="#FAD0AD" transform="translate(157,196)"/>
<path d="M0 0 C0.66 0 1.32 0 2 0 C2 3.63 2 7.26 2 11 C-2 10 -2 10 -4 8 C-4.99 8.495 -4.99 8.495 -6 9 C-6.33 18.9 -6.66 28.8 -7 39 C-7.66 39 -8.32 39 -9 39 C-9.21712953 34.35586181 -9.4139689 29.71147389 -9.59204102 25.06567383 C-9.65547413 23.48536197 -9.7244491 21.90526245 -9.79907227 20.32543945 C-9.90537623 18.05452988 -9.99172961 15.78360256 -10.07421875 13.51171875 C-10.11157639 12.80536789 -10.14893402 12.09901703 -10.18742371 11.3712616 C-10.33709808 6.48895878 -10.33709808 6.48895878 -8.69067383 4.10083008 C-6.28780137 2.53627384 -3.72993547 1.83084992 -1 1 C-0.67 0.67 -0.34 0.34 0 0 Z " fill="#BFA48B" transform="translate(133,125)"/>
<path d="M0 0 C6.75 2.625 6.75 2.625 9 6 C9.17112002 8.47056823 9.23253124 10.82503921 9.1953125 13.29296875 C9.1924826 13.99899734 9.18965271 14.70502594 9.18673706 15.43244934 C9.17555464 17.68430633 9.1504542 19.93576352 9.125 22.1875 C9.11496767 23.71548904 9.10584226 25.24348433 9.09765625 26.77148438 C9.07562172 30.51447663 9.04110567 34.25717056 9 38 C8.67 38 8.34 38 8 38 C7.97494385 37.1121582 7.9498877 36.22431641 7.92407227 35.30957031 C7.82878203 32.00703963 7.72955793 28.70467541 7.62768555 25.40234375 C7.58444682 23.97465612 7.54276415 22.54692046 7.50268555 21.11914062 C7.44471398 19.06365504 7.38109825 17.00840872 7.31640625 14.953125 C7.27974854 13.71723633 7.24309082 12.48134766 7.20532227 11.20800781 C7.04020181 8.62812342 6.7535613 6.45644894 6 4 C4.68 3.67 3.36 3.34 2 3 C2 3.66 2 4.32 2 5 C3.32 5.66 4.64 6.32 6 7 C6 17.23 6 27.46 6 38 C5.34 38 4.68 38 4 38 C3.67 27.77 3.34 17.54 3 7 C2.01 6.67 1.02 6.34 0 6 C0 4.02 0 2.04 0 0 Z " fill="#432A18" transform="translate(181,126)"/>
<path d="M0 0 C3.63 0 7.26 0 11 0 C11 0.99 11 1.98 11 3 C9.68 3 8.36 3 7 3 C7 7.62 7 12.24 7 17 C8.32 17 9.64 17 11 17 C11 18.32 11 19.64 11 21 C7.04 21 3.08 21 -1 21 C-1 19.68 -1 18.36 -1 17 C0.65 17 2.3 17 4 17 C4 12.38 4 7.76 4 3 C2.68 3 1.36 3 0 3 C0 2.01 0 1.02 0 0 Z " fill="#28190E" transform="translate(110,192)"/>
<path d="M0 0 C4.95 0 9.9 0 15 0 C15 0.99 15 1.98 15 3 C13.35 3 11.7 3 10 3 C10 8.94 10 14.88 10 21 C8.68 21 7.36 21 6 21 C6 15.06 6 9.12 6 3 C4.02 3 2.04 3 0 3 C0 2.01 0 1.02 0 0 Z " fill="#45362B" transform="translate(239,192)"/>
<path d="M0 0 C0.33 0.66 0.66 1.32 1 2 C1.66 2 2.32 2 3 2 C3.33 1.34 3.66 0.68 4 0 C4.99 2.64 5.98 5.28 7 8 C6.01 8 5.02 8 4 8 C4 12.29 4 16.58 4 21 C3.67 21 3.34 21 3 21 C3 17.37 3 13.74 3 10 C2.01 10.33 1.02 10.66 0 11 C0 11.66 0 12.32 0 13 C0.66 13.33 1.32 13.66 2 14 C1.67 14.66 1.34 15.32 1 16 C-0.65 16.33 -2.3 16.66 -4 17 C-4 12.38 -4 7.76 -4 3 C-2.68 3 -1.36 3 0 3 C0 2.01 0 1.02 0 0 Z " fill="#E2BD9F" transform="translate(121,192)"/>
<path d="M0 0 C0.66 0.33 1.32 0.66 2 1 C2 1.66 2 2.32 2 3 C2.99 3.33 3.98 3.66 5 4 C5.60831534 13.19232071 4.0324746 18.4512881 -1 26 C-1.02886751 21.85418113 -1.04675327 17.70838784 -1.0625 13.5625 C-1.07087891 12.37849609 -1.07925781 11.19449219 -1.08789062 9.97460938 C-1.09111328 8.84990234 -1.09433594 7.72519531 -1.09765625 6.56640625 C-1.10289307 5.52427979 -1.10812988 4.48215332 -1.11352539 3.40844727 C-1 1 -1 1 0 0 Z " fill="#F7CDAC" transform="translate(129,132)"/>
<path d="M0 0 C-1.17727455 2.55076153 -2.44130312 4.59705716 -4.125 6.875 C-6.18214631 10.30357718 -6.37305442 12.0829286 -6 16 C-2.37 16.33 1.26 16.66 5 17 C5 17.33 5 17.66 5 18 C0.71 18 -3.58 18 -8 18 C-8 19.32 -8 20.64 -8 22 C-6.35 22 -4.7 22 -3 22 C-3 22.33 -3 22.66 -3 23 C-4.65 23 -6.3 23 -8 23 C-8 23.99 -8 24.98 -8 26 C-5.69 26 -3.38 26 -1 26 C-1 26.33 -1 26.66 -1 27 C-3.31 27 -5.62 27 -8 27 C-8 27.99 -8 28.98 -8 30 C-4.7 30 -1.4 30 2 30 C2 30.33 2 30.66 2 31 C-1.3 31 -4.6 31 -8 31 C-8.495 32.485 -8.495 32.485 -9 34 C-9 28.72 -9 23.44 -9 18 C-10.65 19.32 -12.3 20.64 -14 22 C-13.75 20.125 -13.75 20.125 -13 18 C-12.34 17.7525 -11.68 17.505 -11 17.25 C-10.34 16.8375 -9.68 16.425 -9 16 C-8.80168208 14.08292682 -8.60997095 12.16459335 -8.47265625 10.2421875 C-7.65664356 6.37118517 -4.35697472 0 0 0 Z " fill="#3A1E0E" transform="translate(144,107)"/>
<path d="M0 0 C2.6015625 -0.29296875 2.6015625 -0.29296875 5.625 -0.1875 C7.12933594 -0.14689453 7.12933594 -0.14689453 8.6640625 -0.10546875 C9.43492187 -0.07066406 10.20578125 -0.03585938 11 0 C11 3.90432869 10.31626692 6.38026598 9 10 C7.54364629 10.22174933 6.08477044 10.42698698 4.625 10.625 C3.81289062 10.74101562 3.00078125 10.85703125 2.1640625 10.9765625 C1.44992188 10.98429688 0.73578125 10.99203125 0 11 C-2 9 -2 9 -2.25 6.0625 C-2 3 -2 3 0 0 Z " fill="#A38D7B" transform="translate(151,161)"/>
<path d="M0 0 C8.07029553 -0.11547323 15.97667603 0.09958689 24 1 C24 3.31 24 5.62 24 8 C17.565 8.495 17.565 8.495 11 9 C11 6.36 11 3.72 11 1 C7.37 1 3.74 1 0 1 C0 0.67 0 0.34 0 0 Z " fill="#816755" transform="translate(138,123)"/>
<path d="M0 0 C0.33 0 0.66 0 1 0 C1 6.6 1 13.2 1 20 C0.67 20 0.34 20 0 20 C-0.33 17.36 -0.66 14.72 -1 12 C-1.99 12 -2.98 12 -4 12 C-4 10.68 -4 9.36 -4 8 C-7.3 8 -10.6 8 -14 8 C-14 6.35 -14 4.7 -14 3 C-10.7 3 -7.4 3 -4 3 C-4 3.66 -4 4.32 -4 5 C-3.01 5.33 -2.02 5.66 -1 6 C-0.67 6.33 -0.34 6.66 0 7 C0 4.69 0 2.38 0 0 Z " fill="#E2BD9D" transform="translate(223,192)"/>
<path d="M0 0 C2.875 0.75 2.875 0.75 3.875 1.75 C4.0625 4.6875 4.0625 4.6875 3.875 7.75 C1.875 9.75 1.875 9.75 -1.125 10 C-4.125 9.75 -4.125 9.75 -6.125 7.75 C-6.4883156 4.91613833 -6.4818671 3.34477849 -5 0.875 C-3.125 -0.25 -3.125 -0.25 0 0 Z " fill="#3C2113" transform="translate(150.125,110.25)"/>
<path d="M0 0 C5.56818182 0.56818182 5.56818182 0.56818182 7 2 C7.1875 4.9375 7.1875 4.9375 7 8 C5 10 5 10 2 10.3125 C1.01 10.209375 0.02 10.10625 -1 10 C-3 7 -3 7 -2.75 4.4375 C-2 2 -2 2 0 0 Z " fill="#472C1B" transform="translate(161,110)"/>
<path d="M0 0 C0.99 0 1.98 0 3 0 C3 6.6 3 13.2 3 20 C-4 14 -4 14 -5 12 C-3.35 11.67 -1.7 11.34 0 11 C0 7.37 0 3.74 0 0 Z " fill="#130F0D" transform="translate(235,192)"/>
<path d="M0 0 C0.33 0 0.66 0 1 0 C1.33 8.58 1.66 17.16 2 26 C3.32 26.33 4.64 26.66 6 27 C9 32.03571429 9 32.03571429 9 35 C8.01 35 7.02 35 6 35 C5.67 35.66 5.34 36.32 5 37 C4.731875 36.05125 4.46375 35.1025 4.1875 34.125 C3.25013412 30.74732727 3.25013412 30.74732727 0 29 C-0.34057617 26.11083984 -0.34057617 26.11083984 -0.29296875 22.4609375 C-0.28330078 21.15898437 -0.27363281 19.85703125 -0.26367188 18.515625 C-0.23860388 17.13541077 -0.21320902 15.75520244 -0.1875 14.375 C-0.17245517 12.98699337 -0.15876641 11.59897133 -0.14648438 10.2109375 C-0.1110257 6.80690491 -0.06160298 3.40364378 0 0 Z " fill="#D9B598" transform="translate(190,135)"/>
<path d="M0 0 C0.33 0 0.66 0 1 0 C1 2.31 1 4.62 1 7 C3.97 7.495 3.97 7.495 7 8 C6.525625 8.5775 6.05125 9.155 5.5625 9.75 C3.71876366 12.12150978 3.71876366 12.12150978 3 16 C0.03 15.01 -2.94 14.02 -6 13 C-6 12.01 -6 11.02 -6 10 C-5.01 10 -4.02 10 -3 10 C-3 9.01 -3 8.02 -3 7 C-2.01 7 -1.02 7 0 7 C0 4.69 0 2.38 0 0 Z " fill="#F6CBA7" transform="translate(163,125)"/>
<path d="M0 0 C1.65 0.99 3.3 1.98 5 3 C5.99 2.34 6.98 1.68 8 1 C8 4.63 8 8.26 8 12 C8.99 12 9.98 12 11 12 C10.67 12.99 10.34 13.98 10 15 C9.01 14.67 8.02 14.34 7 14 C5.8125 10.9375 5.8125 10.9375 5 8 C3.35 8.66 1.7 9.32 0 10 C0 6.7 0 3.4 0 0 Z " fill="#F0CFB4" transform="translate(189,201)"/>
<path d="M0 0 C0.33 0 0.66 0 1 0 C1 6.93 1 13.86 1 21 C0.01 21 -0.98 21 -2 21 C-2.09087891 19.62714844 -2.09087891 19.62714844 -2.18359375 18.2265625 C-2.30927734 16.44378906 -2.30927734 16.44378906 -2.4375 14.625 C-2.51871094 13.44164062 -2.59992188 12.25828125 -2.68359375 11.0390625 C-2.81084936 8.08481099 -2.81084936 8.08481099 -4 6 C-1.68421053 1.68421053 -1.68421053 1.68421053 0 0 Z " fill="#241309" transform="translate(200,192)"/>
<path d="M0 0 C0.66 0 1.32 0 2 0 C2.33 1.65 2.66 3.3 3 5 C3.99 5.33 4.98 5.66 6 6 C5.01 6.495 5.01 6.495 4 7 C3.29508733 9.32206525 2.62787571 11.65593068 2 14 C1 15 1 15 -1.06640625 15.09765625 C-1.89011719 15.08605469 -2.71382812 15.07445312 -3.5625 15.0625 C-4.38878906 15.05347656 -5.21507812 15.04445312 -6.06640625 15.03515625 C-6.70449219 15.02355469 -7.34257812 15.01195312 -8 15 C-8 14.67 -8 14.34 -8 14 C-4.92382812 13.70703125 -4.92382812 13.70703125 -1.84765625 13.4140625 C-0.93306641 13.20910156 -0.93306641 13.20910156 0 13 C0.33 12.34 0.66 11.68 1 11 C-2.3 11 -5.6 11 -9 11 C-9 10.67 -9 10.34 -9 10 C-5.37 10 -1.74 10 2 10 C2 9.34 2 8.68 2 8 C-1.3 8 -4.6 8 -8 8 C-8 7.67 -8 7.34 -8 7 C-7.04287109 6.92652344 -7.04287109 6.92652344 -6.06640625 6.8515625 C-5.24011719 6.77679688 -4.41382813 6.70203125 -3.5625 6.625 C-2.73878906 6.55539063 -1.91507813 6.48578125 -1.06640625 6.4140625 C-0.04353516 6.20910156 -0.04353516 6.20910156 1 6 C1.33 5.34 1.66 4.68 2 4 C-1.96 4 -5.92 4 -10 4 C-10 3.67 -10 3.34 -10 3 C-6.37 3 -2.74 3 1 3 C0.67 2.01 0.34 1.02 0 0 Z " fill="#271003" transform="translate(160,157)"/>
<path d="M0 0 C0.66 0 1.32 0 2 0 C2 3.63 2 7.26 2 11 C-2 10 -2 10 -4 8 C-4.99 8 -5.98 8 -7 8 C-6.67 7.34 -6.34 6.68 -6 6 C-5.34 6 -4.68 6 -4 6 C-4 5.34 -4 4.68 -4 4 C-5.65 5.32 -7.3 6.64 -9 8 C-9.33 7.34 -9.66 6.68 -10 6 C-7.46157564 2.89748134 -4.7659296 2.14615249 -1 1 C-0.67 0.67 -0.34 0.34 0 0 Z " fill="#3F2414" transform="translate(133,125)"/>
<path d="M0 0 C0.99 0.33 1.98 0.66 3 1 C3 3.64 3 6.28 3 9 C6.3 9 9.6 9 13 9 C13 9.99 13 10.98 13 12 C8.71 12 4.42 12 0 12 C0 8.04 0 4.08 0 0 Z " fill="#1B0E05" transform="translate(206,200)"/>
<path d="M0 0 C0.66 0.33 1.32 0.66 2 1 C2 7.93 2 14.86 2 22 C0.68 22.33 -0.64 22.66 -2 23 C-1.86111494 19.72883268 -1.71269508 16.458166 -1.5625 13.1875 C-1.52318359 12.25873047 -1.48386719 11.32996094 -1.44335938 10.37304688 C-1.40146484 9.48037109 -1.35957031 8.58769531 -1.31640625 7.66796875 C-1.27974854 6.84578857 -1.24309082 6.0236084 -1.20532227 5.17651367 C-1 3 -1 3 0 0 Z " fill="#F5D0B3" transform="translate(203,191)"/>
<path d="M0 0 C1.99954746 -0.04254356 4.00041636 -0.04080783 6 0 C7 1 7 1 7.125 4.75 C7.09051205 7.94588316 6.77827069 10.88691725 6 14 C5.34 14 4.68 14 4 14 C3.54625 13.071875 3.0925 12.14375 2.625 11.1875 C1.0578367 7.96078611 1.0578367 7.96078611 -1 5 C-0.01 4.34 0.98 3.68 2 3 C1.34 2.67 0.68 2.34 0 2 C0 1.34 0 0.68 0 0 Z " fill="#F4CEB0" transform="translate(169,137)"/>
<path d="M0 0 C0.99 0 1.98 0 3 0 C4.13357275 3.32514673 5.1469752 6.5879008 6 10 C2.7 10 -0.6 10 -4 10 C-4 8.68 -4 7.36 -4 6 C-3.34 6 -2.68 6 -2 6 C-1.34 4.02 -0.68 2.04 0 0 Z " fill="#F1D1B7" transform="translate(141,113)"/>
<path d="M0 0 C3.80625387 3.22067635 7.54081536 6.40244797 11 10 C11.33 8.68 11.66 7.36 12 6 C11.67 8.31 11.34 10.62 11 13 C9.0625 12.6875 9.0625 12.6875 7 12 C6.67 11.01 6.34 10.02 6 9 C5.34 8.67 4.68 8.34 4 8 C3.67 8.66 3.34 9.32 3 10 C2.01 9.67 1.02 9.34 0 9 C0 6.03 0 3.06 0 0 Z " fill="#EAC9AD" transform="translate(81,202)"/>
<path d="M0 0 C0.66 0.99 1.32 1.98 2 3 C1.071875 3.185625 1.071875 3.185625 0.125 3.375 C-2.19120832 3.87197356 -2.19120832 3.87197356 -4 6 C-4.99 6.33 -5.98 6.66 -7 7 C-7.66 6.67 -8.32 6.34 -9 6 C-9.66 6.99 -10.32 7.98 -11 9 C-11.35555556 3.66666667 -11.35555556 3.66666667 -10 1.125 C-6.62193105 -0.77516379 -3.83381731 -0.36512546 0 0 Z " fill="#E5C0A1" transform="translate(157,196)"/>
<path d="M0 0 C1.98 0 3.96 0 6 0 C6.33 1.65 6.66 3.3 7 5 C6.34 5 5.68 5 5 5 C4.566875 6.1446875 4.566875 6.1446875 4.125 7.3125 C3 10 3 10 1 13 C-0.00496852 9.98509443 -0.10335303 7.95818308 -0.0625 4.8125 C-0.05347656 3.91144531 -0.04445312 3.01039063 -0.03515625 2.08203125 C-0.02355469 1.39496094 -0.01195312 0.70789063 0 0 Z " fill="#F5CCAC" transform="translate(137,139)"/>
<path d="M0 0 C0.33 1.98 0.66 3.96 1 6 C-0.98 6.99 -0.98 6.99 -3 8 C-3.33 6.68 -3.66 5.36 -4 4 C-4.33 9.28 -4.66 14.56 -5 20 C-5.66 19.67 -6.32 19.34 -7 19 C-6.67 12.73 -6.34 6.46 -6 0 C-3.50907189 -1.24546405 -2.58919267 -0.7767578 0 0 Z " fill="#534134" transform="translate(97,192)"/>
<path d="M0 0 C1 2 1 2 0.25 5.5625 C-0.1625 6.696875 -0.575 7.83125 -1 9 C-1.99 9.33 -2.98 9.66 -4 10 C-4 7.03 -4 4.06 -4 1 C-8.29 1 -12.58 1 -17 1 C-17 0.67 -17 0.34 -17 0 C-14.9174133 -0.19561869 -12.83388144 -0.38119313 -10.75 -0.5625 C-9.58984375 -0.66691406 -8.4296875 -0.77132812 -7.234375 -0.87890625 C-4.47594249 -0.9821809 -2.54490828 -1.01190401 0 0 Z " fill="#4E3828" transform="translate(181,124)"/>
<path d="M0 0 C0.99 0.33 1.98 0.66 3 1 C3 6.61 3 12.22 3 18 C2.01 18 1.02 18 0 18 C0 12.06 0 6.12 0 0 Z " fill="#1D1109" transform="translate(245,195)"/>
<path d="M0 0 C0.33 0 0.66 0 1 0 C1 4.62 1 9.24 1 14 C-0.32 14.33 -1.64 14.66 -3 15 C-3 14.34 -3 13.68 -3 13 C-6.3 13 -9.6 13 -13 13 C-13 11.35 -13 9.7 -13 8 C-10.69 8 -8.38 8 -6 8 C-6 8.33 -6 8.66 -6 9 C-7.98 9 -9.96 9 -12 9 C-12 9.99 -12 10.98 -12 12 C-8.7 12 -5.4 12 -2 12 C-2 10.35 -2 8.7 -2 7 C-1.38431458 4.65269935 -0.72640955 2.31543043 0 0 Z " fill="#F0D2BA" transform="translate(76,196)"/>
<path d="M0 0 C0.66 0.33 1.32 0.66 2 1 C2.73075648 3.3140622 3.40138258 5.64828869 4 8 C6.97 8.33 9.94 8.66 13 9 C12.67 9.99 12.34 10.98 12 12 C11.37351563 11.91621094 10.74703125 11.83242187 10.1015625 11.74609375 C9.28429687 11.64425781 8.46703125 11.54242188 7.625 11.4375 C6.40683594 11.28087891 6.40683594 11.28087891 5.1640625 11.12109375 C2.95100814 10.81762672 2.95100814 10.81762672 1 12 C-0.80619523 7.53763531 -1.11658501 4.68965706 0 0 Z " fill="#F3CEAE" transform="translate(147,163)"/>
<path d="M0 0 C1.65 0 3.3 0 5 0 C5.33 0.99 5.66 1.98 6 3 C5.34 3 4.68 3 4 3 C4 5.97 4 8.94 4 12 C2.68 12 1.36 12 0 12 C0 8.04 0 4.08 0 0 Z " fill="#291A10" transform="translate(125,201)"/>
<path d="M0 0 C0.33 0 0.66 0 1 0 C1 3.63 1 7.26 1 11 C-4 12 -4 12 -6 11 C-6 14.3 -6 17.6 -6 21 C-6.33 21 -6.66 21 -7 21 C-7 15.33333333 -7 9.66666667 -7 4 C-5.02 5.65 -3.04 7.3 -1 9 C-0.67 6.03 -0.34 3.06 0 0 Z " fill="#433225" transform="translate(234,192)"/>
<path d="M0 0 C1.32 0.99 2.64 1.98 4 3 C3.67 5.31 3.34 7.62 3 10 C2.401875 9.67 1.80375 9.34 1.1875 9 C-1.05386471 7.79212012 -1.05386471 7.79212012 -4 8 C-4.66 6.35 -5.32 4.7 -6 3 C-4.02 3 -2.04 3 0 3 C0 2.01 0 1.02 0 0 Z " fill="#302519" transform="translate(136,192)"/>
<path d="M0 0 C4.875 3.625 4.875 3.625 6 7 C5.01 7 4.02 7 3 7 C3 8.98 3 10.96 3 13 C1.02 13.33 -0.96 13.66 -3 14 C-3 13.34 -3 12.68 -3 12 C-2.01 12 -1.02 12 0 12 C0 8.04 0 4.08 0 0 Z " fill="#CFB19A" transform="translate(170,201)"/>
<path d="M0 0 C3.63 0 7.26 0 11 0 C11 0.99 11 1.98 11 3 C9.02 3 7.04 3 5 3 C5.33 4.32 5.66 5.64 6 7 C4.68 7 3.36 7 2 7 C0.5393715 4.35261084 0 3.10551666 0 0 Z " fill="#1D130E" transform="translate(125,192)"/>
<path d="M0 0 C3.63 0 7.26 0 11 0 C11 0.99 11 1.98 11 3 C7.7 3 4.4 3 1 3 C1 4.65 1 6.3 1 8 C3.97 8 6.94 8 10 8 C10 8.33 10 8.66 10 9 C6.7 9 3.4 9 0 9 C0 6.03 0 3.06 0 0 Z " fill="#342418" transform="translate(62,192)"/>
<path d="M0 0 C4.29 0.33 8.58 0.66 13 1 C13 2.32 13 3.64 13 5 C9.7 5 6.4 5 3 5 C3 4.01 3 3.02 3 2 C2.01 1.67 1.02 1.34 0 1 C0 0.67 0 0.34 0 0 Z " fill="#332720" transform="translate(206,199)"/>
<path d="M0 0 C0.33 0.66 0.66 1.32 1 2 C5.5925289 2.97209801 5.5925289 2.97209801 10.1875 2.4375 C12.68750018 1.83405168 13.86307942 2.70258393 16 4 C15.67 4.99 15.34 5.98 15 7 C14.01 6.67 13.02 6.34 12 6 C8.90620122 5.77082972 5.81377243 5.61930103 2.71484375 5.4765625 C1.81894531 5.31929687 0.92304688 5.16203125 0 5 C-0.66 4.01 -1.32 3.02 -2 2 C-1.34 2 -0.68 2 0 2 C0 1.34 0 0.68 0 0 Z " fill="#F6D0B0" transform="translate(149,151)"/>
<path d="M0 0 C0.99 0 1.98 0 3 0 C3 6.6 3 13.2 3 20 C1.68 18.68 0.36 17.36 -1 16 C-0.01 16 0.98 16 2 16 C1.67 13.69 1.34 11.38 1 9 C0.67 9 0.34 9 0 9 C0 6.03 0 3.06 0 0 Z " fill="#1E0F05" transform="translate(178,192)"/>
<path d="M0 0 C0.33 1.32 0.66 2.64 1 4 C1.99 4 2.98 4 4 4 C3.67 6.31 3.34 8.62 3 11 C2.01 11 1.02 11 0 11 C-0.66 10.34 -1.32 9.68 -2 9 C-1.45652174 2.91304348 -1.45652174 2.91304348 0 0 Z " fill="#F3CAA6" transform="translate(142,147)"/>
<path d="M0 0 C2.97 0 5.94 0 9 0 C9 1.32 9 2.64 9 4 C5.37 4 1.74 4 -2 4 C-1.34 2.68 -0.68 1.36 0 0 Z " fill="#7B604C" transform="translate(152,156)"/>
<path d="M0 0 C2 0 2 0 3.69140625 1.609375 C4.30886719 2.31578125 4.92632812 3.0221875 5.5625 3.75 C6.49255859 4.79414063 6.49255859 4.79414063 7.44140625 5.859375 C8.98531094 7.97982555 9.57896851 9.43920573 10 12 C7 12 7 12 5.3125 10.75 C4 9 4 9 4 5 C2.68 5.33 1.36 5.66 0 6 C0 4.02 0 2.04 0 0 Z " fill="#EACDB6" transform="translate(228,203)"/>
<path d="M0 0 C2.3125 0.1875 2.3125 0.1875 5 1 C7.20970874 3.89548041 8 5.33157745 8 9 C6.68 9 5.36 9 4 9 C2.68 6.03 1.36 3.06 0 0 Z " fill="#181209" transform="translate(131,204)"/>
<path d="M0 0 C2.25998595 3.59462331 2.20868087 6.56595675 2.125 10.75 C2.10695312 11.92046875 2.08890625 13.0909375 2.0703125 14.296875 C2.03550781 15.63492188 2.03550781 15.63492188 2 17 C1.67 17 1.34 17 1 17 C0.67 13.7 0.34 10.4 0 7 C-0.99 7.66 -1.98 8.32 -3 9 C-3.33 8.34 -3.66 7.68 -4 7 C-3.67 6.67 -3.34 6.34 -3 6 C-3.66 5.34 -4.32 4.68 -5 4 C-3.35 2.68 -1.7 1.36 0 0 Z " fill="#4F3E31" transform="translate(196,196)"/>
<path d="M0 0 C2.97 0 5.94 0 9 0 C9.33 0.99 9.66 1.98 10 3 C8.68 3.99 7.36 4.98 6 6 C6 5.34 6 4.68 6 4 C4.02 4 2.04 4 0 4 C0 2.68 0 1.36 0 0 Z " fill="#E4BEA0" transform="translate(136,125)"/>
<path d="M0 0 C0.99 0.99 1.98 1.98 3 3 C2.34 3 1.68 3 1 3 C0.67 3.99 0.34 4.98 0 6 C-1.97986082 5.88652381 -3.95891598 5.7589065 -5.9375 5.625 C-7.03964844 5.55539063 -8.14179688 5.48578125 -9.27734375 5.4140625 C-10.17582031 5.27742187 -11.07429687 5.14078125 -12 5 C-12.33 4.34 -12.66 3.68 -13 3 C-8.71 3 -4.42 3 0 3 C0 2.01 0 1.02 0 0 Z " fill="#F5D1B4" transform="translate(220,210)"/>
<path d="M0 0 C3.63 0 7.26 0 11 0 C11 0.99 11 1.98 11 3 C9.68 3 8.36 3 7 3 C6.67 3.66 6.34 4.32 6 5 C4.02 4.34 2.04 3.68 0 3 C0 2.01 0 1.02 0 0 Z " fill="#1C0F09" transform="translate(110,192)"/>
<path d="M0 0 C1.65 0.33 3.3 0.66 5 1 C5 2.65 5 4.3 5 6 C3.125 6.625 3.125 6.625 1 7 C0.34 6.34 -0.32 5.68 -1 5 C-0.625 2.375 -0.625 2.375 0 0 Z " fill="#E9C4A6" transform="translate(147,112)"/>
<path d="M0 0 C3.96 0 7.92 0 12 0 C12 0.99 12 1.98 12 3 C8.04 3 4.08 3 0 3 C0 2.01 0 1.02 0 0 Z " fill="#1D0C03" transform="translate(61,209)"/>
<path d="M0 0 C0.33 0 0.66 0 1 0 C1.33 2.64 1.66 5.28 2 8 C2.33 8 2.66 8 3 8 C3 10.64 3 13.28 3 16 C1.35 15.67 -0.3 15.34 -2 15 C-1.34 14.67 -0.68 14.34 0 14 C-0.17402344 13.44828125 -0.34804687 12.8965625 -0.52734375 12.328125 C-1.07405292 9.63524347 -0.88502281 7.47352596 -0.5625 4.75 C-0.46066406 3.85796875 -0.35882813 2.9659375 -0.25390625 2.046875 C-0.17011719 1.37140625 -0.08632812 0.6959375 0 0 Z " fill="#2B241D" transform="translate(177,192)"/>
<path d="M0 0 C0.99 0.33 1.98 0.66 3 1 C1.50163895 4.11198065 -0.19933758 7.0534615 -2 10 C-2.66 9.67 -3.32 9.34 -4 9 C-4.25 6.75 -4.25 6.75 -4 4 C-2 1.6875 -2 1.6875 0 0 Z " fill="#201008" transform="translate(147,193)"/>
<path d="M0 0 C2.4375 0.8125 2.4375 0.8125 5 2 C5.33 2.99 5.66 3.98 6 5 C5.21625 5.12375 4.4325 5.2475 3.625 5.375 C0.85942178 5.79117993 0.85942178 5.79117993 -1 8 C-1.66 6.35 -2.32 4.7 -3 3 C-2.01 2.01 -1.02 1.02 0 0 Z " fill="#EDC6A5" transform="translate(142,208)"/>
<path d="M0 0 C1.974667 2.96200051 2.71955354 5.09771632 3.625 8.5 C3.88539062 9.4590625 4.14578125 10.418125 4.4140625 11.40625 C5 14 5 14 5 17 C4.01 16.67 3.02 16.34 2 16 C1.855625 15.21625 1.71125 14.4325 1.5625 13.625 C1.12201075 11.03578982 1.12201075 11.03578982 0 9 C-0.06950541 7.45976004 -0.08452357 5.91665012 -0.0625 4.375 C-0.05347656 3.55773437 -0.04445313 2.74046875 -0.03515625 1.8984375 C-0.02355469 1.27195313 -0.01195313 0.64546875 0 0 Z " fill="#E1BFA4" transform="translate(92,193)"/>
<path d="M0 0 C3.3 0 6.6 0 10 0 C9.01 0.495 9.01 0.495 8 1 C8 1.99 8 2.98 8 4 C5.36 4 2.72 4 0 4 C0 2.68 0 1.36 0 0 Z " fill="#F2D0B5" transform="translate(63,196)"/>
<path d="M0 0 C0.33 0 0.66 0 1 0 C1 3.63 1 7.26 1 11 C-1.5 8.6875 -1.5 8.6875 -4 6 C-4 5.01 -4 4.02 -4 3 C-2.68 2.67 -1.36 2.34 0 2 C0 1.34 0 0.68 0 0 Z " fill="#DBBAA0" transform="translate(87,192)"/>
<path d="M0 0 C1.32 0 2.64 0 4 0 C3.67 1.98 3.34 3.96 3 6 C0.24921116 6.91692961 -1.35948913 7.10886083 -4.1875 7.0625 C-6.0746875 7.0315625 -6.0746875 7.0315625 -8 7 C-7.360625 6.87625 -6.72125 6.7525 -6.0625 6.625 C-5.381875 6.41875 -4.70125 6.2125 -4 6 C-3.67 5.34 -3.34 4.68 -3 4 C-2.01 3.34 -1.02 2.68 0 2 C0 1.34 0 0.68 0 0 Z " fill="#F7D2B6" transform="translate(145,125)"/>
<path d="M0 0 C6.41625207 1.45273632 6.41625207 1.45273632 9 3.875 C10.21320964 6.45307048 9.79745262 7.35290032 9 10 C7.49702124 8.52386015 5.99768715 7.04400843 4.5 5.5625 C3.6646875 4.73878906 2.829375 3.91507813 1.96875 3.06640625 C0 1 0 1 0 0 Z " fill="#54463B" transform="translate(240,19)"/>
<path d="M0 0 C0.33 0 0.66 0 1 0 C1 9.24 1 18.48 1 28 C0.34 28 -0.32 28 -1 28 C-1.33 27.01 -1.66 26.02 -2 25 C-1.67 24.67 -1.34 24.34 -1 24 C-0.84235595 22.22130274 -0.74899323 20.43681524 -0.68359375 18.65234375 C-0.64169922 17.57275391 -0.59980469 16.49316406 -0.55664062 15.38085938 C-0.51732422 14.24455078 -0.47800781 13.10824219 -0.4375 11.9375 C-0.39431641 10.79732422 -0.35113281 9.65714844 -0.30664062 8.48242188 C-0.20017161 5.65507805 -0.09815793 2.82764262 0 0 Z " fill="#F6D0B2" transform="translate(121,136)"/>
<path d="M0 0 C1.67542976 0.28604898 3.34385343 0.61781233 5 1 C5 2.65 5 4.3 5 6 C3.35 6 1.7 6 0 6 C-0.38218767 4.34385343 -0.71395102 2.67542976 -1 1 C-0.67 0.67 -0.34 0.34 0 0 Z " fill="#EDCCB3" transform="translate(161,112)"/>
<path d="M0 0 C5.16275261 2.7247861 7.80651187 6.20976781 11 11 C11 11.99 11 12.98 11 14 C10.34 14 9.68 14 9 14 C8.69707031 13.39671875 8.39414063 12.7934375 8.08203125 12.171875 C5.61038764 7.4567395 3.56103041 3.99724856 -1 1 C-0.67 0.67 -0.34 0.34 0 0 Z " fill="#4E2E1B" transform="translate(166,105)"/>
<path d="M0 0 C0.33 0 0.66 0 1 0 C1 6.93 1 13.86 1 21 C0.01 20.67 -0.98 20.34 -2 20 C-1.84660156 19.33613281 -1.69320312 18.67226562 -1.53515625 17.98828125 C-0.89226979 14.39844078 -0.64966009 10.82204581 -0.4375 7.1875 C-0.39431641 6.49462891 -0.35113281 5.80175781 -0.30664062 5.08789062 C-0.20138547 3.39211314 -0.10027137 1.69607948 0 0 Z " fill="#EFD3BD" transform="translate(184,193)"/>
<path d="M0 0 C3.3 0 6.6 0 10 0 C10 0.99 10 1.98 10 3 C6.37 3 2.74 3 -1 3 C-0.67 2.01 -0.34 1.02 0 0 Z " fill="#1D0D03" transform="translate(62,201)"/>
<path d="M0 0 C3.3 0 6.6 0 10 0 C9.67 0.99 9.34 1.98 9 3 C4.545 3.495 4.545 3.495 0 4 C-0.33 3.34 -0.66 2.68 -1 2 C-0.67 1.34 -0.34 0.68 0 0 Z " fill="#857162" transform="translate(151,168)"/>
<path d="M0 0 C9.41002278 -0.3690205 9.41002278 -0.3690205 14 2 C10.69022573 4.20651618 9.83494538 4.44592388 6 4 C2.6875 2.5 2.6875 2.5 0 1 C0 0.67 0 0.34 0 0 Z " fill="#FDCDA2" transform="translate(146,134)"/>
<path d="M0 0 C0.33 0.66 0.66 1.32 1 2 C1.66 2 2.32 2 3 2 C3 2.66 3 3.32 3 4 C3.556875 4.20625 4.11375 4.4125 4.6875 4.625 C7.92501302 6.55000774 9.68231141 9.03850902 12 12 C11.67 12.66 11.34 13.32 11 14 C9.15730989 12.23807715 7.32609243 10.46648194 5.5 8.6875 C4.97535156 8.18798828 4.45070313 7.68847656 3.91015625 7.17382812 C2.5489154 5.83910496 1.26860484 4.4230616 0 3 C0 2.01 0 1.02 0 0 Z " fill="#483A2F" transform="translate(295,70)"/>
<path d="M0 0 C0.66 0 1.32 0 2 0 C2.33 0.66 2.66 1.32 3 2 C3.99 2 4.98 2 6 2 C6.66 4.31 7.32 6.62 8 9 C4.27885429 6.68462045 1.38770339 4.71420527 -1 1 C-0.67 0.67 -0.34 0.34 0 0 Z " fill="#4C4138" transform="translate(281,57)"/>
<path d="M0 0 C1.2065625 0.0309375 1.2065625 0.0309375 2.4375 0.0625 C2.7675 2.0425 3.0975 4.0225 3.4375 6.0625 C2.4475 6.0625 1.4575 6.0625 0.4375 6.0625 C0.4375 5.4025 0.4375 4.7425 0.4375 4.0625 C-1.5425 4.3925 -3.5225 4.7225 -5.5625 5.0625 C-3.15007962 0.07683121 -3.15007962 0.07683121 0 0 Z " fill="#ECC5AA" transform="translate(163.5625,207.9375)"/>
<path d="M0 0 C0.33 1.32 0.66 2.64 1 4 C4.3 4 7.6 4 11 4 C11 3.34 11 2.68 11 2 C11.99 2 12.98 2 14 2 C14 3.98 14 5.96 14 8 C13.01 7.34 12.02 6.68 11 6 C8.26127045 5.54227937 8.26127045 5.54227937 5.3125 5.375 C3.82169922 5.26285156 3.82169922 5.26285156 2.30078125 5.1484375 C1.54152344 5.09945312 0.78226563 5.05046875 0 5 C0 3.35 0 1.7 0 0 Z " fill="#E4C8AF" transform="translate(209,204)"/>
<path d="M0 0 C0 3.63 0 7.26 0 11 C-0.99 11 -1.98 11 -3 11 C-3 7.7 -3 4.4 -3 1 C-1 0 -1 0 0 0 Z " fill="#200A00" transform="translate(189,201)"/>
<path d="M0 0 C0.66 0 1.32 0 2 0 C2 2.97 2 5.94 2 9 C0.68 8.34 -0.64 7.68 -2 7 C-2.125 4.625 -2.125 4.625 -2 2 C-1.34 1.34 -0.68 0.68 0 0 Z " fill="#D0BDAD" transform="translate(133,125)"/>
<path d="M0 0 C4.29 0 8.58 0 13 0 C13 0.66 13 1.32 13 2 C11.39679026 2.19551338 9.79237014 2.38111983 8.1875 2.5625 C7.29417969 2.66691406 6.40085937 2.77132812 5.48046875 2.87890625 C3 3 3 3 0 2 C0 1.34 0 0.68 0 0 Z " fill="#F3D0B5" transform="translate(108,213)"/>
<path d="M0 0 C0.66 0.33 1.32 0.66 2 1 C2 4.63 2 8.26 2 12 C0.68 11.67 -0.64 11.34 -2 11 C-1.34 7.37 -0.68 3.74 0 0 Z " fill="#101011" transform="translate(88,196)"/>
<path d="M0 0 C0 3.96 0 7.92 0 12 C-0.66 11.67 -1.32 11.34 -2 11 C-2.6328125 8.71484375 -2.6328125 8.71484375 -3.125 5.9375 C-3.29257813 5.01839844 -3.46015625 4.09929687 -3.6328125 3.15234375 C-3.75398438 2.44207031 -3.87515625 1.73179687 -4 1 C-2 0 -2 0 0 0 Z " fill="#F6D0B3" transform="translate(113,196)"/>
<path d="M0 0 C2 1.8125 2 1.8125 4 4 C4 7.10551666 3.4606285 8.35261084 2 11 C1.34 10.67 0.68 10.34 0 10 C0 6.7 0 3.4 0 0 Z " fill="#211912" transform="translate(224,192)"/>
<path d="M0 0 C0.66 1.32 1.32 2.64 2 4 C0.07423885 6.43929746 -1.80090595 8.80090595 -4 11 C-4 7.35282355 -3.15014372 4.45043117 -2 1 C-1.34 0.67 -0.68 0.34 0 0 Z " fill="#DCBA9E" transform="translate(166,162)"/>
<path d="M0 0 C1.134375 0.020625 2.26875 0.04125 3.4375 0.0625 C4.0975 1.3825 4.7575 2.7025 5.4375 4.0625 C2.7975 3.7325 0.1575 3.4025 -2.5625 3.0625 C-2.8925 3.7225 -3.2225 4.3825 -3.5625 5.0625 C-4.2225 5.0625 -4.8825 5.0625 -5.5625 5.0625 C-4.43693182 0.07784091 -4.43693182 0.07784091 0 0 Z " fill="#D5BBA7" transform="translate(187.5625,165.9375)"/>
<path d="M0 0 C3.44536172 0.25521198 4.18975817 1.21289941 6.5625 3.875 C7.366875 4.90625 8.17125 5.9375 9 7 C9.98290968 8.01680311 10.97334787 9.02738219 12 10 C10.68 10 9.36 10 8 10 C6.26776336 8.05651499 4.60118397 6.05279996 3 4 C2.01 3.34 1.02 2.68 0 2 C0 1.34 0 0.68 0 0 Z " fill="#E4C1A4" transform="translate(284,64)"/>
<path d="M0 0 C2.31 1.98 4.62 3.96 7 6 C6.01 6.66 5.02 7.32 4 8 C3.67 7.01 3.34 6.02 3 5 C1.68 5.33 0.36 5.66 -1 6 C-1 3 -1 3 0 0 Z " fill="#E6C2A6" transform="translate(254,33)"/>
<path d="M0 0 C4.2742558 1.5830577 6.26531794 4.50568404 9 8 C6 8 6 8 3.375 5.6875 C1 3 1 3 0 0 Z " fill="#ECCCB0" transform="translate(234,15)"/>
<path d="M0 0 C3.00092657 2.25069493 3.21031306 4.94640878 4 8.5 C2.85073734 7.54578192 1.70569459 6.58647955 0.5625 5.625 C-0.07558594 5.09132812 -0.71367187 4.55765625 -1.37109375 4.0078125 C-3 2.5 -3 2.5 -4 0.5 C-2 -0.5 -2 -0.5 0 0 Z " fill="#2E1D13" transform="translate(234,203.5)"/>
<path d="M0 0 C0.8125 1.6875 0.8125 1.6875 1 4 C-1.125 6.75 -1.125 6.75 -4 9 C-6.8125 9.3125 -6.8125 9.3125 -9 9 C-8.01 8.319375 -8.01 8.319375 -7 7.625 C-6.34 7.08875 -5.68 6.5525 -5 6 C-5 5.34 -5 4.68 -5 4 C-3.68 4 -2.36 4 -1 4 C-0.67 2.68 -0.34 1.36 0 0 Z " fill="#CEB19A" transform="translate(159,200)"/>
<path d="M0 0 C1.32 0 2.64 0 4 0 C4 3.63 4 7.26 4 11 C2.68 9.35 1.36 7.7 0 6 C0.99 5.34 1.98 4.68 3 4 C2.01 3.67 1.02 3.34 0 3 C0 2.01 0 1.02 0 0 Z " fill="#F9D2B4" transform="translate(120,202)"/>
<path d="M0 0 C4.92307692 4.18461538 4.92307692 4.18461538 5.3125 8.3125 C5.209375 9.199375 5.10625 10.08625 5 11 C4.01 10.67 3.02 10.34 2 10 C1.34 6.7 0.68 3.4 0 0 Z " fill="#221409" transform="translate(158,193)"/>
<path d="M0 0 C1.32 0.66 2.64 1.32 4 2 C4.33 1.34 4.66 0.68 5 0 C5 2.64 5 5.28 5 8 C3.02 6.35 1.04 4.7 -1 3 C-0.67 2.01 -0.34 1.02 0 0 Z " fill="#E6C6AD" transform="translate(229,194)"/>
<path d="M0 0 C1.32 0 2.64 0 4 0 C4 0.66 4 1.32 4 2 C5.65 2 7.3 2 9 2 C9 2.33 9 2.66 9 3 C3.48727081 4.71084699 0.46809845 5.4606443 -5 3 C-5 2.67 -5 2.34 -5 2 C-3.35 2 -1.7 2 0 2 C0 1.34 0 0.68 0 0 Z " fill="#DDB99B" transform="translate(123,170)"/>
<path d="M0 0 C2.31 0 4.62 0 7 0 C7.66 1.32 8.32 2.64 9 4 C7.39125 3.7215625 7.39125 3.7215625 5.75 3.4375 C2.59608454 3.0695432 0.90181508 2.95534657 -2 4 C-1.34 2.68 -0.68 1.36 0 0 Z " fill="#D7BDAB" transform="translate(121,166)"/>
<path d="M0 0 C2.475 0.99 2.475 0.99 5 2 C5 2.66 5 3.32 5 4 C6.65 4.33 8.3 4.66 10 5 C10 6.65 10 8.3 10 10 C2.51708428 3.84965831 2.51708428 3.84965831 0 0 Z " fill="#4F4036" transform="translate(268,46)"/>
<path d="M0 0 C2 0 2 0 3.625 1.5 C4.07875 1.995 4.5325 2.49 5 3 C4.34 4.32 3.68 5.64 3 7 C2.34 6.67 1.68 6.34 1 6 C-0.70363822 5.77377919 -2.41328701 5.59111527 -4.125 5.4375 C-5.03507812 5.35371094 -5.94515625 5.26992187 -6.8828125 5.18359375 C-7.58148438 5.12300781 -8.28015625 5.06242188 -9 5 C-9 4.67 -9 4.34 -9 4 C-5.7 4 -2.4 4 1 4 C0.67 2.68 0.34 1.36 0 0 Z " fill="#DCB99E" transform="translate(72,191)"/>
<path d="M0 0 C0.33 0.99 0.66 1.98 1 3 C-1.74326404 7.28635006 -2.77027261 8.71776748 -7.8125 9.875 C-8.864375 9.91625 -9.91625 9.9575 -11 10 C-10.41734375 9.75507813 -9.8346875 9.51015625 -9.234375 9.2578125 C-6.63697764 7.79564126 -5.16024169 6.15259586 -3.25 3.875 C-2.63640625 3.15054688 -2.0228125 2.42609375 -1.390625 1.6796875 C-0.70226562 0.84824219 -0.70226562 0.84824219 0 0 Z " fill="#472A19" transform="translate(174,152)"/>
<path d="M0 0 C0.99 0 1.98 0 3 0 C3 2.31 3 4.62 3 7 C1.35 6.67 -0.3 6.34 -2 6 C-1.34 4.02 -0.68 2.04 0 0 Z " fill="#FCCEA8" transform="translate(141,113)"/>
<path d="M0 0 C0.474375 0.495 0.94875 0.99 1.4375 1.5 C2.75923698 3.11542197 2.75923698 3.11542197 4 3 C4 5.64 4 8.28 4 11 C2.29159719 9.36587557 1.06546953 8.13093906 0 6 C-0.039992 4.00039988 -0.04346799 1.99952758 0 0 Z " fill="#3B2A1E" transform="translate(142,199)"/>
<path d="M0 0 C1.32 0 2.64 0 4 0 C4.33 1.65 4.66 3.3 5 5 C3.02 5.99 3.02 5.99 1 7 C0.67 4.69 0.34 2.38 0 0 Z " fill="#F1C7A5" transform="translate(71,197)"/>
<path d="M0 0 C1.5 1.25 1.5 1.25 3 3 C3 4.32 3 5.64 3 7 C1.35 7 -0.3 7 -2 7 C-2.33 6.34 -2.66 5.68 -3 5 C-3.99 4.34 -4.98 3.68 -6 3 C-1.25 3.875 -1.25 3.875 1 5 C0.67 3.35 0.34 1.7 0 0 Z " fill="#422415" transform="translate(129,165)"/>
<path d="M0 0 C0.66 0 1.32 0 2 0 C2.185625 0.9590625 2.185625 0.9590625 2.375 1.9375 C2.684375 2.9584375 2.684375 2.9584375 3 4 C3.66 4.33 4.32 4.66 5 5 C3.35 6.32 1.7 7.64 0 9 C-0.87890625 2.84765625 -0.87890625 2.84765625 -1 1 C-0.67 0.67 -0.34 0.34 0 0 Z " fill="#EEC7A7" transform="translate(117,160)"/>
<path d="M0 0 C0.99 0 1.98 0 3 0 C3.33 2.31 3.66 4.62 4 7 C3.01 7.66 2.02 8.32 1 9 C0.34 7.68 -0.32 6.36 -1 5 C-0.34 4.67 0.32 4.34 1 4 C0.67 2.68 0.34 1.36 0 0 Z " fill="#F4D1B6" transform="translate(168,149)"/>
<path d="M0 0 C0.66 0 1.32 0 2 0 C2.33 2.97 2.66 5.94 3 9 C1.68 8.67 0.36 8.34 -1 8 C-0.67 5.36 -0.34 2.72 0 0 Z " fill="#FBCFAA" transform="translate(169,111)"/>
<path d="M0 0 C0.66 0 1.32 0 2 0 C2.66 1.65 3.32 3.3 4 5 C1.525 6.485 1.525 6.485 -1 8 C-2.2077558 4.37673261 -1.54311128 3.35853631 0 0 Z " fill="#F2CEB2" transform="translate(140,203)"/>
<path d="M0 0 C0.33 0.66 0.66 1.32 1 2 C1.66 2.33 2.32 2.66 3 3 C2.34 3 1.68 3 1 3 C0.67 4.65 0.34 6.3 0 8 C-0.99 7.67 -1.98 7.34 -3 7 C-3.33 6.01 -3.66 5.02 -4 4 C-2.68 2.68 -1.36 1.36 0 0 Z " fill="#E4C3A8" transform="translate(139,200)"/>
<path d="M0 0 C1.98 0 3.96 0 6 0 C6 0.99 6 1.98 6 3 C4.02 3.33 2.04 3.66 0 4 C0 2.68 0 1.36 0 0 Z " fill="#D7B8A0" transform="translate(154,104)"/>
<path d="M0 0 C2.5 2.25 2.5 2.25 5 5 C5 6.32 5 7.64 5 9 C3.0625 8.3125 3.0625 8.3125 1 7 C0.27090544 4.56968481 0 2.52838375 0 0 Z " fill="#2E1A0E" transform="translate(82,197)"/>
<path d="M0 0 C1.875 0.3125 1.875 0.3125 4 1 C4.66 1.99 5.32 2.98 6 4 C5.01 4.33 4.02 4.66 3 5 C3 5.66 3 6.32 3 7 C2.34 7 1.68 7 1 7 C0.67 4.69 0.34 2.38 0 0 Z " fill="#F1C9A9" transform="translate(266,47)"/>
<path d="M0 0 C0.928125 0.2784375 0.928125 0.2784375 1.875 0.5625 C4.04160178 1.23686176 4.04160178 1.23686176 6 0 C5.67 1.65 5.34 3.3 5 5 C3.35 5 1.7 5 0 5 C0 3.35 0 1.7 0 0 Z " fill="#3F2B1B" transform="translate(97,208)"/>
<path d="M0 0 C0.99 0 1.98 0 3 0 C2.67 2.64 2.34 5.28 2 8 C1.34 7.67 0.68 7.34 0 7 C-1.26229508 2.52459016 -1.26229508 2.52459016 0 0 Z " fill="#1B130D" transform="translate(103,192)"/>
<path d="M0 0 C2.5 0.0625 2.5 0.0625 5 1 C6.3125 3.5625 6.3125 3.5625 7 6 C5.68 6.33 4.36 6.66 3 7 C3.66 6.67 4.32 6.34 5 6 C3.33045181 2.77595022 3.33045181 2.77595022 0.375 2.3125 C-0.40875 2.209375 -1.1925 2.10625 -2 2 C-1.34 1.34 -0.68 0.68 0 0 Z " fill="#553825" transform="translate(188,164)"/>
<path d="M0 0 C1.98 0.99 3.96 1.98 6 3 C6.66 2.34 7.32 1.68 8 1 C8.33 2.32 8.66 3.64 9 5 C8.01 5.33 7.02 5.66 6 6 C2.8125 4.1875 2.8125 4.1875 0 2 C0 1.34 0 0.68 0 0 Z " fill="#422B1B" transform="translate(142,158)"/>
<path d="M0 0 C1 4 1 4 -0.9375 7.25 C-1.618125 8.1575 -2.29875 9.065 -3 10 C-3.66 9.34 -4.32 8.68 -5 8 C-3.35 5.36 -1.7 2.72 0 0 Z " fill="#EBC8AC" transform="translate(177,150)"/>
<path d="M0 0 C0.33 0 0.66 0 1 0 C1.37211538 7.56634615 1.37211538 7.56634615 -0.51171875 9.76171875 C-1.00285156 10.17035156 -1.49398437 10.57898438 -2 11 C-1.85957123 9.35369672 -1.71250671 7.70795821 -1.5625 6.0625 C-1.48128906 5.14597656 -1.40007812 4.22945312 -1.31640625 3.28515625 C-1 1 -1 1 0 0 Z " fill="#E8C6AC" transform="translate(104,204)"/>
<path d="M0 0 C0.33 0 0.66 0 1 0 C1 3.63 1 7.26 1 11 C2.98 11.495 2.98 11.495 5 12 C4.67 12.66 4.34 13.32 4 14 C2.68 13.34 1.36 12.68 0 12 C0 8.04 0 4.08 0 0 Z " fill="#F3D2B8" transform="translate(243,202)"/>
<path d="M0 0 C-0.33 0.99 -0.66 1.98 -1 3 C-3.97 2.67 -6.94 2.34 -10 2 C-6.3558226 -0.4294516 -4.28758728 -0.16179575 0 0 Z " fill="#E3C0A0" transform="translate(160,172)"/>
<path d="M0 0 C0.99 0.33 1.98 0.66 3 1 C4.1875 3.5625 4.1875 3.5625 5 6 C4.01 6 3.02 6 2 6 C1.67 6.66 1.34 7.32 1 8 C0.67 5.36 0.34 2.72 0 0 Z " fill="#EECAAC" transform="translate(194,164)"/>
<path d="M0 0 C-1.12451727 2.9719385 -2.22293791 5.33440687 -4 8 C-4.33 5.69 -4.66 3.38 -5 1 C-3 0 -3 0 0 0 Z " fill="#E7CBB6" transform="translate(142,144)"/>
<path d="M0 0 C1.98 0 3.96 0 6 0 C6.33 0.99 6.66 1.98 7 3 C6.67 3.66 6.34 4.32 6 5 C4 4 2 3 0 2 C0 1.34 0 0.68 0 0 Z " fill="#F9CBA4" transform="translate(169,137)"/>
<path d="M0 0 C1.485 0.99 1.485 0.99 3 2 C3.375 4.5 3.375 4.5 3 7 C2.01 7.66 1.02 8.32 0 9 C0 6.03 0 3.06 0 0 Z " fill="#EDD0BA" transform="translate(178,125)"/>
<path d="M0 0 C1.60875 0.3403125 1.60875 0.3403125 3.25 0.6875 C3.25 1.3475 3.25 2.0075 3.25 2.6875 C-0.38 2.6875 -4.01 2.6875 -7.75 2.6875 C-3.75 -0.3125 -3.75 -0.3125 0 0 Z " fill="#F3D2B8" transform="translate(168.75,120.3125)"/>
<path d="M0 0 C2.9375 0.375 2.9375 0.375 6 1 C6.33 1.66 6.66 2.32 7 3 C6.0625 5.125 6.0625 5.125 5 7 C4.67 5.68 4.34 4.36 4 3 C2.02 3.33 0.04 3.66 -2 4 C-1.34 2.68 -0.68 1.36 0 0 Z " fill="#4A3120" transform="translate(147,110)"/>
<path d="M0 0 C0.33 0 0.66 0 1 0 C1 2.31 1 4.62 1 7 C3.97 7.495 3.97 7.495 7 8 C5.1875 9.0625 5.1875 9.0625 3 10 C2.01 9.67 1.02 9.34 0 9 C0 6.03 0 3.06 0 0 Z " fill="#D6AD8A" transform="translate(163,125)"/>
<path d="M0 0 C0.99 0.33 1.98 0.66 3 1 C3.6875 3.0625 3.6875 3.0625 4 5 C2.02 5.99 2.02 5.99 0 7 C0 4.69 0 2.38 0 0 Z " fill="#E2BFA6" transform="translate(129,204)"/>
<path d="M0 0 C0.66 0 1.32 0 2 0 C1.67 2.64 1.34 5.28 1 8 C0.34 8 -0.32 8 -1 8 C-1.93065133 5.39417629 -2.14917407 4.35801776 -1.0625 1.75 C-0.711875 1.1725 -0.36125 0.595 0 0 Z " fill="#ECC8AA" transform="translate(174,143)"/>
<path d="M0 0 C1.5 1.3125 1.5 1.3125 3 3 C3 3.99 3 4.98 3 6 C1.68 6 0.36 6 -1 6 C-1.33 5.01 -1.66 4.02 -2 3 C-1.34 3 -0.68 3 0 3 C0 2.01 0 1.02 0 0 Z " fill="#402616" transform="translate(136,207)"/>
<path d="M0 0 C0.66 0.33 1.32 0.66 2 1 C2.625 3.5625 2.625 3.5625 3 6 C2.01 6 1.02 6 0 6 C-0.38218767 4.34385343 -0.71395102 2.67542976 -1 1 C-0.67 0.67 -0.34 0.34 0 0 Z " fill="#EECDB3" transform="translate(148,201)"/>
<path d="M0 0 C1.98 0 3.96 0 6 0 C6 0.99 6 1.98 6 3 C4.02 3 2.04 3 0 3 C0 2.01 0 1.02 0 0 Z " fill="#170F0F" transform="translate(212,201)"/>
<path d="M0 0 C1.32 1.32 2.64 2.64 4 4 C2.68 5.65 1.36 7.3 0 9 C0 6.03 0 3.06 0 0 Z " fill="#2B1E14" transform="translate(167,192)"/>
<path d="M0 0 C1.98 0 3.96 0 6 0 C6 0.99 6 1.98 6 3 C4.02 3 2.04 3 0 3 C0 2.01 0 1.02 0 0 Z " fill="#26170B" transform="translate(239,192)"/>
<path d="M0 0 C0.99 0.33 1.98 0.66 3 1 C3.33 1.99 3.66 2.98 4 4 C3.01 4.66 2.02 5.32 1 6 C0.34 5.67 -0.32 5.34 -1 5 C-0.67 3.35 -0.34 1.7 0 0 Z " fill="#ECCAAE" transform="translate(131,208)"/>
<path d="M0 0 C0.66 0 1.32 0 2 0 C2 1.98 2 3.96 2 6 C1.01 6 0.02 6 -1 6 C-1.042721 4.33388095 -1.04063832 2.66617115 -1 1 C-0.67 0.67 -0.34 0.34 0 0 Z " fill="#2F1308" transform="translate(168,207)"/>
<path d="M0 0 C1.65 0 3.3 0 5 0 C4.67 1.32 4.34 2.64 4 4 C2.68 4 1.36 4 0 4 C0 2.68 0 1.36 0 0 Z " fill="#F1D1B4" transform="translate(210,204)"/>
<path d="M0 0 C1.65 0 3.3 0 5 0 C4.67 1.32 4.34 2.64 4 4 C3.01 4 2.02 4 1 4 C0.67 2.68 0.34 1.36 0 0 Z " fill="#EAC2AB" transform="translate(131,196)"/>
<path d="M0 0 C1.98 0 3.96 0 6 0 C6 0.99 6 1.98 6 3 C4.35 3 2.7 3 1 3 C0.67 2.01 0.34 1.02 0 0 Z " fill="#10110A" transform="translate(130,192)"/>
<path d="M0 0 C0.33 0 0.66 0 1 0 C1.36923077 5.53846154 1.36923077 5.53846154 -0.5 7.875 C-1.2425 8.431875 -1.2425 8.431875 -2 9 C-1.125 2.25 -1.125 2.25 0 0 Z " fill="#DCBA9D" transform="translate(142,147)"/>
<path d="M0 0 C0.39832031 0.50144531 0.79664063 1.00289063 1.20703125 1.51953125 C-1.51489335 2.88049355 -2.97616445 2.22319373 -5.91796875 1.58203125 C-6.82804688 1.38738281 -7.738125 1.19273438 -8.67578125 0.9921875 C-9.37445313 0.83621094 -10.073125 0.68023437 -10.79296875 0.51953125 C-10.79296875 0.18953125 -10.79296875 -0.14046875 -10.79296875 -0.48046875 C-9.35886507 -0.7300088 -7.92036803 -0.95439517 -6.48046875 -1.16796875 C-5.67996094 -1.29558594 -4.87945312 -1.42320312 -4.0546875 -1.5546875 C-1.79296875 -1.48046875 -1.79296875 -1.48046875 0 0 Z " fill="#E9C7AD" transform="translate(226.79296875,6.48046875)"/>
</svg>
